<?xml version="1.0" encoding="UTF-8"?>
<svg version="1.1" xmlns="http://www.w3.org/2000/svg" width="399" height="133">
<path d="M0 0 C0.66 0 1.32 0 2 0 C3.77114717 3.81235427 5.5418801 7.62490082 7.3125 11.4375 C7.73574554 12.34876648 7.73574554 12.34876648 8.1675415 13.27844238 C11.97240153 21.47096721 15.77227036 29.66578405 19.56640625 37.86328125 C29.32081247 58.93572737 39.11823677 79.98695207 49 101 C45.33200694 102.22266435 44.75301705 101.712569 41.39453125 100.03515625 C29.70858985 94.03579923 22.77812969 89.32389483 18.15722656 76.88378906 C16.66117664 73.15565791 14.9453392 69.55186746 13.2109375 65.9296875 C12.86753326 65.21119629 12.52412903 64.49270508 12.1703186 63.75244141 C11.46668812 62.28135324 10.76267535 60.81044787 10.05828857 59.33972168 C8.35638654 55.77808506 6.67213996 52.20850779 5 48.6328125 C4.54601334 47.67445999 4.54601334 47.67445999 4.08285522 46.69674683 C2 42.22995309 2 42.22995309 2 40 C1.34 40 0.68 40 0 40 C-0.2678833 40.85722656 -0.5357666 41.71445312 -0.81176758 42.59765625 C-2.00673114 46.01927371 -3.42892375 49.17833867 -5.01171875 52.4375 C-5.30303177 53.03949219 -5.59434479 53.64148438 -5.89448547 54.26171875 C-6.8220837 56.17615418 -7.75478891 58.08805131 -8.6875 60 C-9.59649655 61.87536758 -10.50454553 63.75119159 -11.41244507 65.62709045 C-12.02183593 66.87886376 -12.63581976 68.12841121 -13.25430298 69.37571716 C-14.79646903 72.48730683 -16.27530178 75.60332717 -17.64013672 78.79711914 C-21.410375 87.38098838 -25.51491908 91.94304183 -33.75 96.4375 C-34.69488281 97.00275391 -35.63976563 97.56800781 -36.61328125 98.15039062 C-41.58765163 101.04090314 -41.58765163 101.04090314 -44 102 C-44.99 101.67 -45.98 101.34 -47 101 C-46.5781543 100.10619629 -46.15630859 99.21239258 -45.72167969 98.29150391 C-38.24308065 82.44170143 -30.77892204 66.58668857 -23.45581055 50.66430664 C-18.94489237 40.86112988 -14.38043744 31.08329817 -9.80615234 21.30957031 C-6.49375643 14.22576817 -3.21741969 7.12747202 0 0 Z " fill="#5D19E7" transform="translate(52,15)"/>
<path d="M0 0 C1.15371094 -0.00708984 2.30742187 -0.01417969 3.49609375 -0.02148438 C10.70075962 0.03252984 15.58083298 0.58849069 21.1875 5.4375 C24.12459786 8.91850487 24.03583287 12.110591 24.0625 16.5 C24.07667969 17.56347656 24.09085938 18.62695312 24.10546875 19.72265625 C23.875 22.4375 23.875 22.4375 21.875 24.4375 C19.16045044 24.76502234 16.62269241 24.5683425 13.875 24.4375 C11.98346411 22.54596411 12.45059137 19.23352344 12.25390625 16.6640625 C11.98299175 14.15829922 11.98299175 14.15829922 9.875 11.4375 C7.55199616 11.02140728 7.55199616 11.02140728 4.8671875 11.14453125 C3.88105469 11.15419922 2.89492187 11.16386719 1.87890625 11.17382812 C0.33009766 11.2115332 0.33009766 11.2115332 -1.25 11.25 C-2.29027344 11.26353516 -3.33054687 11.27707031 -4.40234375 11.29101562 C-6.97707627 11.32644772 -9.5507833 11.37584779 -12.125 11.4375 C-12.15191685 13.89590605 -12.17179802 16.35401882 -12.1875 18.8125 C-12.19587891 19.51117188 -12.20425781 20.20984375 -12.21289062 20.9296875 C-12.3085442 24.81045376 -12.3085442 24.81045376 -11.125 28.4375 C-8.14798416 29.42983861 -6.15419475 29.56149646 -3.046875 29.578125 C-2.05042969 29.59746094 -1.05398437 29.61679687 -0.02734375 29.63671875 C2.05840279 29.67031814 4.14445325 29.68878233 6.23046875 29.69140625 C11.97493091 29.83187572 16.13815402 30.22788891 20.59790039 34.05737305 C24.84560101 38.64774804 24.20897704 44.47740347 24.1875 50.375 C24.20361328 51.25607422 24.21972656 52.13714844 24.23632812 53.04492188 C24.24023203 58.25663892 23.83169439 61.95723838 20.875 66.4375 C14.18670655 71.8172143 7.77565161 71.64164849 -0.4375 71.6875 C-1.34951172 71.708125 -2.26152344 71.72875 -3.20117188 71.75 C-10.16237592 71.78992088 -15.99968252 71.00186306 -21.5625 66.4375 C-24.55790938 62.60337599 -24.25965039 59.01223827 -24.25 54.3125 C-24.25386719 52.42144531 -24.25386719 52.42144531 -24.2578125 50.4921875 C-24.125 47.4375 -24.125 47.4375 -23.125 46.4375 C-21.60571962 46.36570036 -20.08332518 46.35357993 -18.5625 46.375 C-17.73621094 46.38402344 -16.90992187 46.39304688 -16.05859375 46.40234375 C-15.42050781 46.41394531 -14.78242187 46.42554688 -14.125 46.4375 C-12.70242765 49.28264471 -12.79862538 52.09827359 -12.6015625 55.24609375 C-12.01668985 57.93554914 -11.25703142 58.73265704 -9.125 60.4375 C-7.13539085 60.86376605 -7.13539085 60.86376605 -4.96484375 60.765625 C-4.17142578 60.76046875 -3.37800781 60.7553125 -2.56054688 60.75 C-1.73619141 60.729375 -0.91183594 60.70875 -0.0625 60.6875 C0.76572266 60.68234375 1.59394531 60.6771875 2.44726562 60.671875 C6.810363 60.73596073 6.810363 60.73596073 10.875 59.4375 C11.94927471 56.21467587 12.0082963 53.82238847 12 50.4375 C12.00257813 49.385625 12.00515625 48.33375 12.0078125 47.25 C11.99853635 44.35623122 11.99853635 44.35623122 10.875 41.4375 C8.39259525 40.19629762 6.66962713 40.29592451 3.89453125 40.26171875 C2.89486328 40.23787109 1.89519531 40.21402344 0.86523438 40.18945312 C-1.23352492 40.14688456 -3.33254226 40.11541914 -5.43164062 40.09570312 C-11.83215501 39.91939171 -15.9909333 39.38835133 -21.125 35.4375 C-25.18646517 30.99475443 -24.57047492 25.63030715 -24.5 19.9375 C-24.51160156 19.00035156 -24.52320312 18.06320313 -24.53515625 17.09765625 C-24.49648057 8.00887072 -24.49648057 8.00887072 -21.125 4.4375 C-14.75097292 -0.46094391 -7.72110302 -0.13461991 0 0 Z " fill="#5B1DDE" transform="translate(131.125,28.5625)"/>
<path d="M0 0 C2.5 1.0625 2.5 1.0625 3.98828125 3.95703125 C5.90837953 8.7695774 7.03074607 13.77310676 8.1875 18.8125 C8.41244141 19.75738281 8.63738281 20.70226562 8.86914062 21.67578125 C10.5 28.64535049 10.5 28.64535049 10.5 32.0625 C11.16 32.0625 11.82 32.0625 12.5 32.0625 C12.58636719 31.48886719 12.67273438 30.91523437 12.76171875 30.32421875 C13.83583553 23.83024666 15.2326313 17.40311491 16.75 11 C17.02009888 9.73192505 17.02009888 9.73192505 17.2956543 8.43823242 C17.85985621 6.15202237 18.4208201 4.15585589 19.5 2.0625 C22.421875 0.37890625 22.421875 0.37890625 25.5 0.0625 C27.78125 0.6796875 27.78125 0.6796875 29.5 2.0625 C30.40625 3.8828125 30.40625 3.8828125 31 6.1875 C31.34998047 7.51007812 31.34998047 7.51007812 31.70703125 8.859375 C32.09955078 10.44492187 32.09955078 10.44492187 32.5 12.0625 C32.85677398 13.42221649 33.21493205 14.7815703 33.57421875 16.140625 C33.94661155 17.57257947 34.31770562 19.00487231 34.6875 20.4375 C34.86667969 21.12730957 35.04585937 21.81711914 35.23046875 22.52783203 C36.06330864 25.85187171 36.5 28.60716259 36.5 32.0625 C37.16 32.0625 37.82 32.0625 38.5 32.0625 C38.74234375 30.91394531 38.9846875 29.76539062 39.234375 28.58203125 C41.23820798 19.24223427 43.48608492 10.13630816 46.5 1.0625 C50.37493656 -0.01387127 52.02452927 0.11683049 55.5 2.0625 C54.98366716 8.78098039 53.95880162 15.15158024 52.3203125 21.68359375 C52.10688202 22.55017105 51.89345154 23.41674835 51.67355347 24.30958557 C51.22490559 26.12125976 50.77264908 27.93204389 50.31689453 29.74194336 C49.62139744 32.51436067 48.94497999 35.2909983 48.26953125 38.06835938 C47.82926826 39.83622261 47.38790151 41.60381141 46.9453125 43.37109375 C46.74519562 44.19919052 46.54507874 45.02728729 46.33889771 45.88047791 C46.04376785 47.03296776 46.04376785 47.03296776 45.74267578 48.20874023 C45.5747049 48.88251205 45.40673401 49.55628387 45.2336731 50.25047302 C44.33710506 52.46481819 43.38213955 53.59600616 41.5 55.0625 C37.13293092 55.45241688 35.19486103 55.52574069 31.5 53.0625 C30.60864258 50.6640625 30.60864258 50.6640625 29.89453125 47.6875 C29.63349609 46.62015625 29.37246094 45.5528125 29.10351562 44.453125 C28.84248047 43.33421875 28.58144531 42.2153125 28.3125 41.0625 C27.90354492 39.38414063 27.90354492 39.38414063 27.48632812 37.671875 C25.5 29.42786654 25.5 29.42786654 25.5 27.0625 C24.84 27.0625 24.18 27.0625 23.5 27.0625 C23.38398438 28.18914062 23.26796875 29.31578125 23.1484375 30.4765625 C22.54847001 35.25314581 21.40746021 39.80384912 20.125 44.4375 C19.91617188 45.24316406 19.70734375 46.04882812 19.4921875 46.87890625 C19.28078125 47.64847656 19.069375 48.41804688 18.8515625 49.2109375 C18.57046631 50.25000244 18.57046631 50.25000244 18.28369141 51.31005859 C17.5 53.0625 17.5 53.0625 14.5 55.0625 C10.42509248 55.40207563 8.96998729 55.37582486 5.5 53.0625 C4.67694092 51.10929871 4.67694092 51.10929871 4.04199219 48.69213867 C3.79874207 47.7874736 3.55549194 46.88280853 3.30487061 45.95072937 C3.05473206 44.97054337 2.80459351 43.99035736 2.546875 42.98046875 C2.28239563 41.97413895 2.01791626 40.96780914 1.74542236 39.9309845 C1.18853245 37.79978582 0.63747835 35.66705503 0.09179688 33.53295898 C-0.74504403 30.269328 -1.60547966 27.01258614 -2.46875 23.75585938 C-3.006641 21.68526748 -3.54314536 19.61431477 -4.078125 17.54296875 C-4.33636047 16.56885544 -4.59459595 15.59474213 -4.86065674 14.59111023 C-5.09129822 13.67698868 -5.3219397 12.76286713 -5.55957031 11.82104492 C-5.76592102 11.02099533 -5.97227173 10.22094574 -6.18487549 9.39665222 C-6.55670804 6.64245906 -6.34824468 4.70812223 -5.5 2.0625 C-2.5 0.0625 -2.5 0.0625 0 0 Z " fill="#5C19E5" transform="translate(168.5,44.9375)"/>
<path d="M0 0 C1.85625 -0.01160156 1.85625 -0.01160156 3.75 -0.0234375 C7 0.375 7 0.375 8.56610107 1.53359985 C10.45754513 3.96257535 11.22428593 6.3123913 12.19238281 9.23583984 C12.59579895 10.44074066 12.99921509 11.64564148 13.41485596 12.88705444 C13.84482712 14.20316984 14.27423654 15.51946888 14.703125 16.8359375 C15.14918712 18.18745557 15.59570673 19.53882273 16.04266357 20.89004517 C16.97661117 23.72095639 17.90365976 26.55401448 18.82617188 29.38867188 C20.00784834 33.01717714 21.20843662 36.63909452 22.41453934 40.25954247 C23.34088428 43.04837329 24.25606931 45.8407704 25.16805267 48.63432693 C25.6061579 49.97113858 26.04794655 51.30674901 26.49350739 52.64109421 C27.11551693 54.50874641 27.72072341 56.38196928 28.32519531 58.25537109 C28.67366516 59.31887787 29.02213501 60.38238464 29.38116455 61.4781189 C30.04100085 64.56693242 29.97197928 66.38779993 29 69.375 C27 71.375 27 71.375 23.375 71.5 C22.26125 71.45875 21.1475 71.4175 20 71.375 C17.07421213 64.30436615 14.50616112 57.16391988 12.109375 49.8984375 C11.75989807 48.84717682 11.41042114 47.79591614 11.050354 46.71279907 C9.94738628 43.3928038 8.84862467 40.07143464 7.75 36.75 C6.99767477 34.48298033 6.24507322 32.21605234 5.4921875 29.94921875 C3.65826429 24.42553443 1.82778157 18.90071942 0 13.375 C-0.22106415 14.05738235 -0.4421283 14.73976471 -0.66989136 15.44282532 C-2.75435053 21.87435173 -4.84323602 28.30442135 -6.93710136 34.73289204 C-8.01341286 38.03785501 -9.08800669 41.34335594 -10.15869141 44.65014648 C-11.38976145 48.45202799 -12.6282693 52.25144991 -13.8671875 56.05078125 C-14.25059296 57.23835526 -14.63399841 58.42592926 -15.02902222 59.64949036 C-15.38924469 60.75040512 -15.74946716 61.85131989 -16.12060547 62.9855957 C-16.59359573 64.44120659 -16.59359573 64.44120659 -17.07614136 65.92622375 C-18 68.375 -18 68.375 -20 71.375 C-23.39700537 71.7455824 -25.90008095 71.92495952 -29 70.375 C-31.07008407 66.23483187 -29.13705513 60.84326663 -27.89599609 56.60302734 C-27.446376 55.30290528 -26.98851049 54.00561225 -26.5234375 52.7109375 C-26.15412865 51.65067856 -26.15412865 51.65067856 -25.77735901 50.56900024 C-24.98358142 48.29347645 -24.17941057 46.02178405 -23.375 43.75 C-22.27577241 40.61342956 -21.18211385 37.47493677 -20.08984375 34.3359375 C-19.82093826 33.56497742 -19.55203278 32.79401733 -19.27497864 31.99969482 C-16.71251126 24.61934022 -14.35441419 17.1785571 -12.14404297 9.68505859 C-11.89928223 8.88148926 -11.65452148 8.07791992 -11.40234375 7.25 C-11.20116943 6.56679688 -10.99999512 5.88359375 -10.79272461 5.1796875 C-8.50384952 -0.03108079 -5.35301418 -0.03345634 0 0 Z " fill="#FA9250" transform="translate(335,28.625)"/>
<path d="M0 0 C0.66 0 1.32 0 2 0 C11.38066738 19.97818046 20.72380168 39.97308371 30 60 C26.13618299 61.287939 25.18275698 60.4411364 21.5625 58.7265625 C20.50289062 58.2315625 19.44328125 57.7365625 18.3515625 57.2265625 C17.24554688 56.69804688 16.13953125 56.16953125 15 55.625 C12.81302612 54.59523607 10.62554882 53.56654041 8.4375 52.5390625 C6.98150391 51.84611084 6.98150391 51.84611084 5.49609375 51.13916016 C2.95435127 49.92578746 2.95435127 49.92578746 0 49 C-2.63051163 50.14382922 -5.10019893 51.34354679 -7.625 52.6875 C-9.06840835 53.43085773 -10.51241554 54.17305385 -11.95703125 54.9140625 C-12.6526416 55.2740332 -13.34825195 55.63400391 -14.06494141 56.00488281 C-17.66131392 57.8543421 -21.23072359 59.53062106 -25 61 C-25.99 60.67 -26.98 60.34 -28 60 C-14 30 -14 30 0 0 Z " fill="#5D18E9" transform="translate(52,62)"/>
<path d="M0 0 C2 3 2 3 1.625 5.6875 C1.315625 6.8321875 1.315625 6.8321875 1 8 C-5.75 10 -5.75 10 -8 10 C-8 12.31 -8 14.62 -8 17 C-5.98177083 16.90234375 -3.96354167 16.8046875 -1.9453125 16.70703125 C-1.30335938 16.80371094 -0.66140625 16.90039062 0 17 C2 20 2 20 1.6875 22.625 C1 25 1 25 0 26 C-2.67058851 26.14115161 -5.32432238 26.04247107 -8 26 C-7.98952637 27.29212402 -7.97905273 28.58424805 -7.96826172 29.91552734 C-7.93213281 34.69756309 -7.90912549 39.47958673 -7.89013672 44.26171875 C-7.88006288 46.33367947 -7.86640334 48.40562593 -7.84912109 50.47753906 C-7.82493336 53.45120764 -7.81353092 56.4246887 -7.8046875 59.3984375 C-7.79436493 60.32868744 -7.78404236 61.25893738 -7.77340698 62.21737671 C-7.77325592 63.07811798 -7.77310486 63.93885925 -7.77294922 64.82568359 C-7.768508 65.58513275 -7.76406677 66.34458191 -7.75949097 67.12704468 C-8 69 -8 69 -10 71 C-13.5 71.25 -13.5 71.25 -17 71 C-19 69 -19 69 -19.24050903 67.12704468 C-19.2338472 65.98787094 -19.2338472 65.98787094 -19.22705078 64.82568359 C-19.22682419 63.53457169 -19.22682419 63.53457169 -19.22659302 62.21737671 C-19.21627045 61.28712677 -19.20594788 60.35687683 -19.1953125 59.3984375 C-19.1924826 58.44683746 -19.18965271 57.49523743 -19.18673706 56.51480103 C-19.17551989 53.46807408 -19.15041263 50.42163846 -19.125 47.375 C-19.11497218 45.31250424 -19.10584599 43.25000388 -19.09765625 41.1875 C-19.07557554 36.12488733 -19.0410353 31.0624931 -19 26 C-19.969375 26.020625 -20.93875 26.04125 -21.9375 26.0625 C-25 26 -25 26 -26 25 C-26.125 21.5 -26.125 21.5 -26 18 C-25 17 -25 17 -21.9375 16.9375 C-20.4834375 16.9684375 -20.4834375 16.9684375 -19 17 C-19.0928125 15.205625 -19.0928125 15.205625 -19.1875 13.375 C-19.15789938 9.19391221 -18.50015858 6.46796189 -16 3 C-11.07423439 0.04454064 -5.73250205 -1.19086601 0 0 Z " fill="#5B1CE1" transform="translate(273,29)"/>
<path d="M0 0 C2.13325612 2.19912864 2.94441372 3.51084072 3.29296875 6.578125 C3.25816406 7.45984375 3.22335937 8.3415625 3.1875 9.25 C3.16042969 10.14203125 3.13335937 11.0340625 3.10546875 11.953125 C3.07066406 12.62859375 3.03585937 13.3040625 3 14 C3.63808594 13.98839844 4.27617187 13.97679687 4.93359375 13.96484375 C5.75988281 13.95582031 6.58617187 13.94679688 7.4375 13.9375 C8.26121094 13.92589844 9.08492188 13.91429687 9.93359375 13.90234375 C12 14 12 14 13 15 C13.125 18.5 13.125 18.5 13 22 C12.67 22.33 12.34 22.66 12 23 C9.03 23 6.06 23 3 23 C3.33 34.22 3.66 45.44 4 57 C6.97 57.99 9.94 58.98 13 60 C13 62.31 13 64.62 13 67 C8.54946559 69.22526721 3.77941353 68.24681428 -0.75 66.8125 C-4.34432037 64.80797518 -5.83131492 63.48065234 -8 60 C-8.342908 57.00656068 -8.46916655 54.3987739 -8.390625 51.41796875 C-8.38496521 50.60378983 -8.37930542 49.7896109 -8.37347412 48.95075989 C-8.35116774 46.36239647 -8.30098445 43.7754416 -8.25 41.1875 C-8.22992747 39.42775444 -8.21167802 37.66798707 -8.1953125 35.90820312 C-8.15132207 31.60492995 -8.08233627 27.3027034 -8 23 C-8.78375 23.04125 -9.5675 23.0825 -10.375 23.125 C-13 23 -13 23 -15 21 C-14.625 17.375 -14.625 17.375 -14 14 C-12.02 14 -10.04 14 -8 14 C-8.03480469 13.15695313 -8.06960938 12.31390625 -8.10546875 11.4453125 C-8.13253906 10.34960938 -8.15960938 9.25390625 -8.1875 8.125 C-8.22230469 7.03445312 -8.25710938 5.94390625 -8.29296875 4.8203125 C-8.19628906 3.88960937 -8.09960938 2.95890625 -8 2 C-4.77856724 -0.14762184 -3.7404533 -0.561068 0 0 Z " fill="#5C17E9" transform="translate(291,32)"/>
<path d="M0 0 C2.9375 0.8125 2.9375 0.8125 4.9375 3.8125 C5.19146729 5.9753418 5.19146729 5.9753418 5.19628906 8.51171875 C5.20259338 9.46280518 5.20889771 10.4138916 5.21539307 11.39379883 C5.2113446 12.41884521 5.20729614 13.4438916 5.203125 14.5 C5.20503845 15.55405029 5.2069519 16.60810059 5.20892334 17.6940918 C5.21028475 19.92334227 5.20659138 22.15260068 5.19824219 24.38183594 C5.18754224 27.79900884 5.19813916 31.215656 5.2109375 34.6328125 C5.2096159 36.79687616 5.20705349 38.9609395 5.203125 41.125 C5.20717346 42.15004639 5.21122192 43.17509277 5.21539307 44.23120117 C5.20908875 45.1822876 5.20278442 46.13337402 5.19628906 47.11328125 C5.19390228 48.36878784 5.19390228 48.36878784 5.19146729 49.6496582 C4.9375 51.8125 4.9375 51.8125 2.9375 54.8125 C-0.5625 55.125 -0.5625 55.125 -4.0625 54.8125 C-6.58631456 52.28868544 -6.31918466 51.42905272 -6.3371582 47.93554688 C-6.34669022 46.92109497 -6.35622223 45.90664307 -6.36604309 44.8614502 C-6.36513168 43.76248413 -6.36422028 42.66351807 -6.36328125 41.53125 C-6.36756638 40.40682495 -6.3718515 39.2823999 -6.37626648 38.12390137 C-6.38201719 35.7432523 -6.38250462 33.36258566 -6.37817383 30.98193359 C-6.37501297 27.32749666 -6.39846788 23.67386804 -6.42382812 20.01953125 C-6.42610083 17.71093853 -6.42680475 15.40234361 -6.42578125 13.09375 C-6.434991 11.99478394 -6.44420074 10.89581787 -6.45368958 9.7635498 C-6.44434639 8.24187195 -6.44434639 8.24187195 -6.43481445 6.68945312 C-6.43544388 5.79391724 -6.4360733 4.89838135 -6.4367218 3.97570801 C-6.31322861 3.26184937 -6.18973541 2.54799072 -6.0625 1.8125 C-3.0625 -0.1875 -3.0625 -0.1875 0 0 Z " fill="#F99150" transform="translate(377.0625,45.1875)"/>
<path d="M0 0 C2.25 1.25 2.25 1.25 3.25 3.25 C3.34473864 4.74558869 3.37794313 6.24531087 3.37939453 7.74389648 C3.38254669 8.67503769 3.38569885 9.60617889 3.38894653 10.5655365 C3.3869223 11.57387039 3.38489807 12.58220428 3.3828125 13.62109375 C3.38376923 14.65436295 3.38472595 15.68763214 3.38571167 16.75221252 C3.38639304 18.9403591 3.38454173 21.12850769 3.38037109 23.31665039 C3.37502768 26.6701308 3.38031476 30.02347693 3.38671875 33.37695312 C3.38605785 35.5000003 3.38477646 37.62304738 3.3828125 39.74609375 C3.38483673 40.75240341 3.38686096 41.75871307 3.38894653 42.79551697 C3.38579437 43.72981033 3.38264221 44.6641037 3.37939453 45.62670898 C3.37820114 46.86009254 3.37820114 46.86009254 3.37698364 48.11839294 C3.25 50.25 3.25 50.25 2.25 53.25 C-0.51250036 54.63125018 -2.69731099 54.44079306 -5.75 54.25 C-7.75 52.25 -7.75 52.25 -7.99050903 50.07333374 C-7.98606781 49.17176544 -7.98162659 48.27019714 -7.97705078 47.34130859 C-7.97689972 46.32040131 -7.97674866 45.29949402 -7.97659302 44.24765015 C-7.96627045 43.14240997 -7.95594788 42.0371698 -7.9453125 40.8984375 C-7.9424826 39.7692691 -7.93965271 38.64010071 -7.93673706 37.47671509 C-7.92551462 33.85937029 -7.90040622 30.24227034 -7.875 26.625 C-7.86497287 24.1770869 -7.85584656 21.72916993 -7.84765625 19.28125 C-7.82556857 13.27074936 -7.79207074 7.26039217 -7.75 1.25 C-3.09375 -0.84375 -3.09375 -0.84375 0 0 Z " fill="#5C17E9" transform="translate(237.75,45.75)"/>
<path d="M0 0 C0.33 0 0.66 0 1 0 C1.33 6.93 1.66 13.86 2 21 C3.98 21.66 5.96 22.32 8 23 C8.66 23.99 9.32 24.98 10 26 C8.35 26 6.7 26 5 26 C6.32 26.66 7.64 27.32 9 28 C9.45375 27.505 9.9075 27.01 10.375 26.5 C12 25 12 25 14 25 C14 25.99 14 26.98 14 28 C13.34 28 12.68 28 12 28 C12 28.66 12 29.32 12 30 C15.45826342 30.05789006 18.91640293 30.09355821 22.375 30.125 C23.35984375 30.14175781 24.3446875 30.15851563 25.359375 30.17578125 C26.30039063 30.18222656 27.24140625 30.18867187 28.2109375 30.1953125 C29.08024902 30.20578613 29.94956055 30.21625977 30.84521484 30.22705078 C33.21345939 30.20595109 33.21345939 30.20595109 35 28 C35.99 27.67 36.98 27.34 38 27 C38 26.01 38 25.02 38 24 C41.91304179 25.26909463 43.85610288 26.46256976 46 30 C47.42152285 34.26456854 47.22445293 38.34495685 47.25 42.8125 C47.270625 43.70259766 47.29125 44.59269531 47.3125 45.50976562 C47.34366611 50.76515016 46.9969311 54.4834982 44 59 C38.88397045 63.11506725 34.57408363 64.13918764 28.13671875 64.09765625 C26.80737305 64.09282227 26.80737305 64.09282227 25.45117188 64.08789062 C24.53916016 64.07951172 23.62714844 64.07113281 22.6875 64.0625 C21.75615234 64.05798828 20.82480469 64.05347656 19.86523438 64.04882812 C17.57675627 64.03709234 15.28841192 64.02067363 13 64 C13 63.67 13 63.34 13 63 C16.04127817 62.66274935 19.08294191 62.33007668 22.125 62 C22.9809375 61.90460938 23.836875 61.80921875 24.71875 61.7109375 C29.17022474 61.23154791 33.51441925 60.88234542 38 61 C38 60.34 38 59.68 38 59 C38.99 58.67 39.98 58.34 41 58 C41 57.34 41 56.68 41 56 C42.98 55.505 42.98 55.505 45 55 C44.88630789 52.54066009 44.75957349 50.0832091 44.625 47.625 C44.57859375 46.57699219 44.57859375 46.57699219 44.53125 45.5078125 C44.40500502 41.29814173 44.40500502 41.29814173 42 38 C42 37.01 42 36.02 42 35 C41.34 35 40.68 35 40 35 C39.855625 35.61875 39.71125 36.2375 39.5625 36.875 C39 39 39 39 38 41 C37.7724985 42.87056791 37.59037189 44.74685958 37.4375 46.625 C37.35371094 47.62789062 37.26992187 48.63078125 37.18359375 49.6640625 C37.09271484 50.82035156 37.09271484 50.82035156 37 52 C36.01 52 35.02 52 34 52 C34.33 51.01 34.66 50.02 35 49 C35.09435979 47.00179272 35.12990301 45.00042797 35.125 43 C35.12757813 41.948125 35.13015625 40.89625 35.1328125 39.8125 C35.12353635 36.91873122 35.12353635 36.91873122 34 34 C31.51759525 32.75879762 29.79462713 32.85842451 27.01953125 32.82421875 C26.01986328 32.80037109 25.02019531 32.77652344 23.99023438 32.75195312 C21.89147508 32.70938456 19.79245774 32.67791914 17.69335938 32.65820312 C11.29284499 32.48189171 7.1340667 31.95085133 2 28 C-2.12750431 23.528537 -1.37444632 18.04869742 -1.25 12.3125 C-1.24484375 11.35021484 -1.2396875 10.38792969 -1.234375 9.39648438 C-1.15480303 2.30960607 -1.15480303 2.30960607 0 0 Z " fill="#5B1EDB" transform="translate(108,36)"/>
<path d="M0 0 C1.65 0.33 3.3 0.66 5 1 C4.690625 2.051875 4.38125 3.10375 4.0625 4.1875 C3.0880301 7.99063949 2.7795813 11.64599146 2.5625 15.5625 C2.22565404 20.74150669 1.56458581 24.48632897 -1 29 C-3.70879335 30.35439668 -6.00933268 30.06501451 -9 30 C-9 29.01 -9 28.02 -9 27 C-9.66 27 -10.32 27 -11 27 C-11.144375 25.865625 -11.28875 24.73125 -11.4375 23.5625 C-11.61171478 20.19222799 -11.61171478 20.19222799 -13 19 C-13.47420249 15.58574207 -13.10895127 14.18158544 -11.3125 11.1875 C-9 9 -9 9 -6.25 8.6875 C-5.13625 8.8421875 -5.13625 8.8421875 -4 9 C-3.67 7.35 -3.34 5.7 -3 4 C-2.34 4 -1.68 4 -1 4 C-0.67 2.68 -0.34 1.36 0 0 Z " fill="#5C18E6" transform="translate(186,70)"/>
<path d="M0 0 C0.33 0.99 0.66 1.98 1 3 C-0.32 3.33 -1.64 3.66 -3 4 C-3 5.32 -3 6.64 -3 8 C-1.02 7.67 0.96 7.34 3 7 C3.33 12.28 3.66 17.56 4 23 C6.82836989 23.94278996 8.80172238 24.17489169 11.74609375 24.28125 C13.12571289 24.33732422 13.12571289 24.33732422 14.53320312 24.39453125 C15.97083008 24.44673828 15.97083008 24.44673828 17.4375 24.5 C19.3321749 24.56908335 21.22671954 24.64186147 23.12109375 24.71875 C23.9608374 24.74904297 24.80058105 24.77933594 25.66577148 24.81054688 C27.88354854 24.99054844 29.86399988 25.39208754 32 26 C32.33 25.34 32.66 24.68 33 24 C33 28 33 28 31.125 30.25 C24.11868711 34.17353522 14.70998422 31.82083482 7 31 C7 30.34 7 29.68 7 29 C7.66 29 8.32 29 9 29 C9 28.01 9 27.02 9 26 C7.35 27.32 5.7 28.64 4 30 C0.125 28.25 0.125 28.25 -1 26 C0.65 26 2.3 26 4 26 C0.55291141 23.90493748 0.55291141 23.90493748 -3 22 C-4.32227764 17.65062133 -4.11479353 13.18876608 -4.0625 8.6875 C-4.05798828 7.94693359 -4.05347656 7.20636719 -4.04882812 6.44335938 C-4.03712175 4.62887101 -4.01918898 2.81442466 -4 1 C-2.68 0.67 -1.36 0.34 0 0 Z " fill="#5C17EA" transform="translate(113,35)"/>
<path d="M0 0 C1.23556641 0.01740234 1.23556641 0.01740234 2.49609375 0.03515625 C3.32238281 0.04417969 4.14867188 0.05320312 5 0.0625 C5.63808594 0.07410156 6.27617188 0.08570312 6.93359375 0.09765625 C8.3561661 2.94280096 8.25996837 5.75842984 8.45703125 8.90625 C9.04480525 11.60904684 9.77115599 12.4023434 11.93359375 14.09765625 C14.15333318 14.50945387 14.15333318 14.50945387 16.6015625 14.390625 C17.49423828 14.38095703 18.38691406 14.37128906 19.30664062 14.36132812 C20.23541016 14.33619141 21.16417969 14.31105469 22.12109375 14.28515625 C23.53165039 14.26485352 23.53165039 14.26485352 24.97070312 14.24414062 C27.29224413 14.20878721 29.61263028 14.15944299 31.93359375 14.09765625 C31.60359375 14.75765625 31.27359375 15.41765625 30.93359375 16.09765625 C28.203125 16.4765625 28.203125 16.4765625 24.74609375 16.66015625 C18.29397338 17.01958388 18.29397338 17.01958388 11.93359375 18.09765625 C11.60359375 18.75765625 11.27359375 19.41765625 10.93359375 20.09765625 C9.28359375 19.76765625 7.63359375 19.43765625 5.93359375 19.09765625 C5.93359375 20.08765625 5.93359375 21.07765625 5.93359375 22.09765625 C7.25359375 22.75765625 8.57359375 23.41765625 9.93359375 24.09765625 C4.29498676 23.69489861 1.86012529 21.93287311 -2.06640625 18.09765625 C-3.24435478 14.56381066 -3.19904942 11.69488072 -3.19140625 7.97265625 C-3.19527344 6.08160156 -3.19527344 6.08160156 -3.19921875 4.15234375 C-3.02489744 0.14295357 -3.02489744 0.14295357 0 0 Z " fill="#5B1DDE" transform="translate(110.06640625,74.90234375)"/>
<path d="M0 0 C2.13325612 2.19912864 2.94441372 3.51084072 3.29296875 6.578125 C3.25816406 7.45984375 3.22335937 8.3415625 3.1875 9.25 C3.16042969 10.14203125 3.13335937 11.0340625 3.10546875 11.953125 C3.07066406 12.62859375 3.03585937 13.3040625 3 14 C2.34 14 1.68 14 1 14 C0.81824219 13.45730469 0.63648438 12.91460937 0.44921875 12.35546875 C0.19785156 11.64003906 -0.05351562 10.92460938 -0.3125 10.1875 C-0.67794922 9.12595703 -0.67794922 9.12595703 -1.05078125 8.04296875 C-2.06724258 5.85527627 -3.20820594 4.59103282 -5 3 C-5 3.99 -5 4.98 -5 6 C-4.34 6.33 -3.68 6.66 -3 7 C-2.375 9.0625 -2.375 9.0625 -2 11 C-2.99 11.33 -3.98 11.66 -5 12 C-4.38722388 14.96175123 -3.74627478 16.38058783 -2 19 C-2.99 19.33 -3.98 19.66 -5 20 C-5.33 32.54 -5.66 45.08 -6 58 C-6.99 58.495 -6.99 58.495 -8 59 C-8 47.12 -8 35.24 -8 23 C-9.65 23 -11.3 23 -13 23 C-13.66 22.34 -14.32 21.68 -15 21 C-14.625 17.375 -14.625 17.375 -14 14 C-12.02 14 -10.04 14 -8 14 C-8.03480469 13.15695313 -8.06960938 12.31390625 -8.10546875 11.4453125 C-8.13253906 10.34960938 -8.15960938 9.25390625 -8.1875 8.125 C-8.22230469 7.03445312 -8.25710938 5.94390625 -8.29296875 4.8203125 C-8.19628906 3.88960937 -8.09960938 2.95890625 -8 2 C-4.77856724 -0.14762184 -3.7404533 -0.561068 0 0 Z " fill="#5A23D1" transform="translate(291,32)"/>
<path d="M0 0 C2.875 0.75 2.875 0.75 3.875 1.75 C3.89465901 10.13861405 1.40494238 18.32841961 -0.6875 26.375 C-1.02084679 27.67821563 -1.35353367 28.98160023 -1.68554688 30.28515625 C-2.49225 33.44182064 -3.30553237 36.59662983 -4.125 39.75 C-4.455 39.75 -4.785 39.75 -5.125 39.75 C-5.44392177 33.1117025 -5.36086927 28.68242699 -2.125 22.75 C-1.87355688 18.99926796 -1.87355688 18.99926796 -2.125 15.75 C-3.445 15.75 -4.765 15.75 -6.125 15.75 C-5.795 17.07 -5.465 18.39 -5.125 19.75 C-5.785 19.75 -6.445 19.75 -7.125 19.75 C-7.063125 20.8946875 -7.063125 20.8946875 -7 22.0625 C-7.125 24.75 -7.125 24.75 -9.125 27.75 C-9.785 27.75 -10.445 27.75 -11.125 27.75 C-11.455 28.41 -11.785 29.07 -12.125 29.75 C-11.49126985 23.64506619 -10.30627714 17.87080661 -8.75 11.9375 C-8.43675781 10.6700293 -8.43675781 10.6700293 -8.1171875 9.37695312 C-7.90578125 8.56548828 -7.694375 7.75402344 -7.4765625 6.91796875 C-7.19546631 5.82391724 -7.19546631 5.82391724 -6.90869141 4.70776367 C-5.38761163 0.90790736 -4.13258167 -0.33060653 0 0 Z " fill="#5B1CE1" transform="translate(220.125,45.25)"/>
<path d="M0 0 C3.93268867 -0.02473868 7.86534713 -0.04287835 11.7980957 -0.05493164 C13.79314768 -0.06242729 15.78817786 -0.07513345 17.78320312 -0.08789062 C19.03681641 -0.09111328 20.29042969 -0.09433594 21.58203125 -0.09765625 C22.73936768 -0.10289307 23.8967041 -0.10812988 25.08911133 -0.11352539 C28 0 28 0 31 1 C31.12375 1.78375 31.2475 2.5675 31.375 3.375 C31.79117993 6.14057822 31.79117993 6.14057822 34 8 C33.86260143 12.94634849 31.22103403 15.53738841 28 19 C27.67 19 27.34 19 27 19 C26.87882812 18.30132812 26.75765625 17.60265625 26.6328125 16.8828125 C26.46523437 15.97273438 26.29765625 15.06265625 26.125 14.125 C25.96257812 13.22007813 25.80015625 12.31515625 25.6328125 11.3828125 C25.16955297 8.83494012 25.16955297 8.83494012 23 7 C19.39241922 6.7409942 15.82398545 6.63337501 12.20898438 6.609375 C6.42933707 6.43016113 6.42933707 6.43016113 3.96484375 3.9609375 C3.64644531 3.31382813 3.32804687 2.66671875 3 2 C2.01 2.33 1.02 2.66 0 3 C0 2.01 0 1.02 0 0 Z " fill="#5D17EA" transform="translate(118,31)"/>
<path d="M0 0 C2.25 1.25 2.25 1.25 3.25 3.25 C3.34473864 4.74558869 3.37794313 6.24531087 3.37939453 7.74389648 C3.38254669 8.67503769 3.38569885 9.60617889 3.38894653 10.5655365 C3.3869223 11.57387039 3.38489807 12.58220428 3.3828125 13.62109375 C3.38376923 14.65436295 3.38472595 15.68763214 3.38571167 16.75221252 C3.38639304 18.9403591 3.38454173 21.12850769 3.38037109 23.31665039 C3.37502768 26.6701308 3.38031476 30.02347693 3.38671875 33.37695312 C3.38605785 35.5000003 3.38477646 37.62304738 3.3828125 39.74609375 C3.38483673 40.75240341 3.38686096 41.75871307 3.38894653 42.79551697 C3.38579437 43.72981033 3.38264221 44.6641037 3.37939453 45.62670898 C3.37820114 46.86009254 3.37820114 46.86009254 3.37698364 48.11839294 C3.25 50.25 3.25 50.25 2.25 53.25 C-0.51250036 54.63125018 -2.69731099 54.44079306 -5.75 54.25 C-7.75 52.25 -7.75 52.25 -7.99050903 50.07333374 C-7.98606781 49.17176544 -7.98162659 48.27019714 -7.97705078 47.34130859 C-7.97689972 46.32040131 -7.97674866 45.29949402 -7.97659302 44.24765015 C-7.96627045 43.14240997 -7.95594788 42.0371698 -7.9453125 40.8984375 C-7.9424826 39.7692691 -7.93965271 38.64010071 -7.93673706 37.47671509 C-7.92551462 33.85937029 -7.90040622 30.24227034 -7.875 26.625 C-7.86497287 24.1770869 -7.85584656 21.72916993 -7.84765625 19.28125 C-7.82556857 13.27074936 -7.79207074 7.26039217 -7.75 1.25 C-3.09375 -0.84375 -3.09375 -0.84375 0 0 Z M-5.75 1.25 C-6.96004832 2.23966726 -6.96004832 2.23966726 -6.87025452 4.15455627 C-6.86803391 4.98728561 -6.86581329 5.82001495 -6.86352539 6.67797852 C-6.86344986 7.61887833 -6.86337433 8.55977814 -6.86329651 9.52919006 C-6.85813522 10.55209641 -6.85297394 11.57500275 -6.84765625 12.62890625 C-6.8462413 13.67070541 -6.84482635 14.71250458 -6.84336853 15.78587341 C-6.8377508 19.12811094 -6.8251953 22.47028257 -6.8125 25.8125 C-6.80748728 28.07226466 -6.80292398 30.33203037 -6.79882812 32.59179688 C-6.78777561 38.14455391 -6.77102024 43.69727225 -6.75 49.25 C-5.76 49.58 -4.77 49.91 -3.75 50.25 C-3.75 50.91 -3.75 51.57 -3.75 52.25 C-2.1 52.25 -0.45 52.25 1.25 52.25 C1.25 35.42 1.25 18.59 1.25 1.25 C-1.06 1.25 -3.37 1.25 -5.75 1.25 Z " fill="#5B2BC0" transform="translate(237.75,45.75)"/>
<path d="M0 0 C2.4375 1.625 2.4375 1.625 4 4 C4.60605429 7.63632575 4.47161336 9.28314769 2.4375 12.375 C-0.8994213 14.5996142 -3.06905293 14.50030235 -7 14 C-8.9375 13 -8.9375 13 -10 11 C-10.52960415 7.41957756 -10.65886567 4.24021772 -8.9375 1 C-5.82090489 -0.60856522 -3.43737531 -0.42213381 0 0 Z " fill="#FC904B" transform="translate(338,71)"/>
<path d="M0 0 C2 2 2 2 2.3125 5.9375 C2.23081662 8.43791894 2.12109418 9.77205801 0.9375 12 C-2.17909511 13.60856522 -4.56262469 13.42213381 -8 13 C-10.4375 11.375 -10.4375 11.375 -12 9 C-12.5 6 -12.5 6 -12 3 C-8.25654619 -1.77613072 -5.43004252 -2.64540533 0 0 Z " fill="#F9914F" transform="translate(381,29)"/>
<path d="M0 0 C1.9375 1 1.9375 1 3 3 C3.45982357 5.75894141 3.51068558 8.24574069 3 11 C0.81246717 13.6923481 -0.58423955 13.93936827 -4 14.4375 C-7 14 -7 14 -9.375 12.375 C-11.48706506 9.28813568 -11.61195145 7.6717087 -11 4 C-8.05323917 -0.47907646 -5.13567732 -0.65363166 0 0 Z " fill="#5C17E8" transform="translate(239,28)"/>
<path d="M0 0 C4.08739986 4.08739986 3.21903812 9.39804179 3.25 14.8125 C3.270625 15.70259766 3.29125 16.59269531 3.3125 17.50976562 C3.34366611 22.76515016 2.9969311 26.4834982 0 31 C-5.11602955 35.11506725 -9.42591637 36.13918764 -15.86328125 36.09765625 C-17.19262695 36.09282227 -17.19262695 36.09282227 -18.54882812 36.08789062 C-19.46083984 36.07951172 -20.37285156 36.07113281 -21.3125 36.0625 C-22.24384766 36.05798828 -23.17519531 36.05347656 -24.13476562 36.04882812 C-26.42324373 36.03709234 -28.71158808 36.02067363 -31 36 C-31 35.67 -31 35.34 -31 35 C-27.95872183 34.66274935 -24.91705809 34.33007668 -21.875 34 C-21.0190625 33.90460938 -20.163125 33.80921875 -19.28125 33.7109375 C-14.82977526 33.23154791 -10.48558075 32.88234542 -6 33 C-6 32.34 -6 31.68 -6 31 C-5.01 30.67 -4.02 30.34 -3 30 C-3 29.34 -3 28.68 -3 28 C-1.68 27.67 -0.36 27.34 1 27 C0.67 18.09 0.34 9.18 0 0 Z " fill="#5527C1" transform="translate(152,64)"/>
<path d="M0 0 C6.15234375 -0.09765625 6.15234375 -0.09765625 8 0 C9 1 9 1 9.125 4.5 C9 8 9 8 8 9 C5.03 9 2.06 9 -1 9 C-1 20.22 -1 31.44 -1 43 C-1.33 43 -1.66 43 -2 43 C-2 31.45 -2 19.9 -2 8 C0.31 7.01 2.62 6.02 5 5 C4.34 5 3.68 5 3 5 C3 4.01 3 3.02 3 2 C1.68 2.33 0.36 2.66 -1 3 C-0.67 2.01 -0.34 1.02 0 0 Z " fill="#5E2ACB" transform="translate(295,46)"/>
<path d="M0 0 C2.86698759 3.40939065 4.5083429 7.17027016 6.1875 11.25 C6.59645508 12.22453125 6.59645508 12.22453125 7.01367188 13.21875 C7.68076842 14.81041896 8.34107445 16.40493103 9 18 C4.21357393 17.4253379 0.46211213 16.01754357 -3.875 13.9375 C-5.02742188 13.38964844 -6.17984375 12.84179688 -7.3671875 12.27734375 C-8.23601562 11.85582031 -9.10484375 11.43429688 -10 11 C-9.34 10.34 -8.68 9.68 -8 9 C-7.30251417 7.68252676 -6.63040043 6.35085807 -6 5 C-5.67 6.32 -5.34 7.64 -5 9 C-2.36 9.66 0.28 10.32 3 11 C2.505 9.9275 2.01 8.855 1.5 7.75 C0.11346089 4.74583192 0 3.54065105 0 0 Z " fill="#5623CD" transform="translate(73,105)"/>
<path d="M0 0 C-3.59687899 1.7033629 -7.20353919 3.38490589 -10.8125 5.0625 C-11.83666016 5.54783203 -12.86082031 6.03316406 -13.91601562 6.53320312 C-14.89892578 6.98759766 -15.88183594 7.44199219 -16.89453125 7.91015625 C-17.80050049 8.33433838 -18.70646973 8.75852051 -19.63989258 9.19555664 C-22 10 -22 10 -25 9 C-23.68 6.03 -22.36 3.06 -21 0 C-20.34 0.99 -19.68 1.98 -19 3 C-18.29875 2.46375 -17.5975 1.9275 -16.875 1.375 C-14 0 -14 0 -10.6875 0.8125 C-9.3571875 1.4003125 -9.3571875 1.4003125 -8 2 C-8 1.34 -8 0.68 -8 0 C-4.90645403 -0.99435406 -3.09720845 -0.87840996 0 0 Z " fill="#5A19E6" transform="translate(49,113)"/>
<path d="M0 0 C2.4375 1.125 2.4375 1.125 4.125 4.1875 C4.59371203 5.48918027 5.02974351 6.80295721 5.4375 8.125 C5.65535156 8.81851563 5.87320313 9.51203125 6.09765625 10.2265625 C7.14285514 13.92282877 7.57176108 16.47105896 6.4375 20.125 C4.25007986 16.8438698 3.89307194 14.79415644 3.3125 10.9375 C3.14492187 9.85082031 2.97734375 8.76414062 2.8046875 7.64453125 C2.68351563 6.81308594 2.56234375 5.98164062 2.4375 5.125 C1.4475 5.455 0.4575 5.785 -0.5625 6.125 C-1.2225 5.795 -1.8825 5.465 -2.5625 5.125 C-2.8925 8.095 -3.2225 11.065 -3.5625 14.125 C-6.12866632 10.27575052 -6.11347676 7.6900696 -6.5625 3.125 C-4.30874918 1.03819369 -3.11184412 0.15179727 0 0 Z " fill="#5A1DD3" transform="translate(168.5625,44.875)"/>
<path d="M0 0 C1 1 1 1 1.00415039 2.77099609 C0.28328354 10.59686169 -1.58802236 18.03205825 -3.5625 25.625 C-3.89584679 26.92821563 -4.22853367 28.23160023 -4.56054688 29.53515625 C-5.36725 32.69182064 -6.18053237 35.84662983 -7 39 C-7.33 39 -7.66 39 -8 39 C-8.32289703 32.27895819 -8.0863255 28.04405411 -5 22 C-4.74159386 18.65085379 -4.82113788 15.35200859 -5 12 C-4.01 12 -3.02 12 -2 12 C-1.67 8.7 -1.34 5.4 -1 2 C-3.31 2 -5.62 2 -8 2 C-8 1.34 -8 0.68 -8 0 C-5.11795733 -1.44102133 -3.08226581 -0.65580124 0 0 Z " fill="#5B2DBE" transform="translate(223,46)"/>
<path d="M0 0 C1.99954746 -0.04254356 4.00041636 -0.04080783 6 0 C7 1 7 1 7.0625 4.5625 C7.041875 5.696875 7.02125 6.83125 7 8 C3.31169445 9.84415278 -1.07413912 9.55187713 -4.9765625 8.43359375 C-8.19787762 7.12450612 -10.79833421 5.7197048 -13 3 C-12.67 2.34 -12.34 1.68 -12 1 C-11.401875 1.639375 -10.80375 2.27875 -10.1875 2.9375 C-8.09189663 5.20310389 -8.09189663 5.20310389 -5 6 C-4.67 5.01 -4.34 4.02 -4 3 C-2 5 -2 5 -2 6 C-0.35 5.67 1.3 5.34 3 5 C3 3.68 3 2.36 3 1 C2.01 0.67 1.02 0.34 0 0 Z " fill="#652BCE" transform="translate(297,91)"/>
<path d="M0 0 C0.33 0 0.66 0 1 0 C1 2.31 1 4.62 1 7 C3.01822917 6.90234375 5.03645833 6.8046875 7.0546875 6.70703125 C7.69664062 6.80371094 8.33859375 6.90039062 9 7 C11 10 11 10 10.625 12.6875 C10.41875 13.450625 10.2125 14.21375 10 15 C7.36 15 4.72 15 2 15 C1.855625 14.030625 1.71125 13.06125 1.5625 12.0625 C1.32437659 9.13513227 1.32437659 9.13513227 0 8 C-0.14115161 5.32941149 -0.04247107 2.67567762 0 0 Z " fill="#5D28CD" transform="translate(264,39)"/>
<path d="M0 0 C2.4375 1.625 2.4375 1.625 4 4 C4.60605429 7.63632575 4.47161336 9.28314769 2.4375 12.375 C-0.8994213 14.5996142 -3.06905293 14.50030235 -7 14 C-8.9375 13 -8.9375 13 -10 11 C-10.52960415 7.41957756 -10.65886567 4.24021772 -8.9375 1 C-5.82090489 -0.60856522 -3.43737531 -0.42213381 0 0 Z M-9 4 C-9.41746608 7.12635209 -9.41746608 7.12635209 -9 10 C-4.56906802 11.81301758 -4.56906802 11.81301758 0 11 C0.33 10.01 0.66 9.02 1 8 C1.66 8.33 2.32 8.66 3 9 C3.41780879 6.62694422 3.41780879 6.62694422 3 4 C-1.74910988 0.37567931 -4.27560029 0.27021076 -9 4 Z " fill="#ED9260" transform="translate(338,71)"/>
<path d="M0 0 C1.9375 1 1.9375 1 3 3 C3.45982357 5.75894141 3.51068558 8.24574069 3 11 C0.81246717 13.6923481 -0.58423955 13.93936827 -4 14.4375 C-7 14 -7 14 -9.375 12.375 C-11.48706506 9.28813568 -11.61195145 7.6717087 -11 4 C-8.05323917 -0.47907646 -5.13567732 -0.65363166 0 0 Z M-8 2 C-8.96624167 3.67828408 -8.96624167 3.67828408 -9 6 C-8.17895138 8.4526196 -7.12523789 10.65950519 -6 13 C-3.25913944 13.22223194 -1.56036279 13.34781139 0.8125 11.875 C2.49106106 9.22464043 2.20450238 7.06753576 2 4 C-2.86668176 1.20461963 -2.86668176 1.20461963 -8 2 Z " fill="#5A2BC5" transform="translate(239,28)"/>
<path d="M0 0 C0.66 0 1.32 0 2 0 C2.99 2.97 3.98 5.94 5 9 C4.34 8.67 3.68 8.34 3 8 C3 7.34 3 6.68 3 6 C2.01 6.495 2.01 6.495 1 7 C0.67 7.99 0.34 8.98 0 10 C-0.66 10 -1.32 10 -2 10 C-2.0825 10.70125 -2.165 11.4025 -2.25 12.125 C-3.18009005 15.6903452 -4.76686369 18.09015572 -7 21 C-7.66 21 -8.32 21 -9 21 C-7.50640515 16.15713185 -5.54966433 11.68649104 -3.375 7.125 C-2.88773438 6.09246094 -2.88773438 6.09246094 -2.390625 5.0390625 C-1.59676528 3.35794781 -0.79880442 1.67877079 0 0 Z " fill="#5824CC" transform="translate(52,62)"/>
<path d="M0 0 C1.17755859 -0.03867187 1.17755859 -0.03867187 2.37890625 -0.078125 C3.05824219 0.03015625 3.73757813 0.1384375 4.4375 0.25 C6.4375 3.25 6.4375 3.25 6.0625 5.9375 C5.753125 7.0821875 5.753125 7.0821875 5.4375 8.25 C-1.3125 10.25 -1.3125 10.25 -3.5625 10.25 C-3.5625 9.59 -3.5625 8.93 -3.5625 8.25 C-0.0975 7.755 -0.0975 7.755 3.4375 7.25 C3.4375 6.59 3.4375 5.93 3.4375 5.25 C2.1175 4.92 0.7975 4.59 -0.5625 4.25 C-0.2325 3.92 0.0975 3.59 0.4375 3.25 C-3.69824827 3.1515298 -7.49881321 3.47596442 -11.5625 4.25 C-7.75406301 1.22951549 -4.85786675 0.0960369 0 0 Z " fill="#5A25C4" transform="translate(268.5625,28.75)"/>
<path d="M0 0 C2.86453858 3.41016497 4.34703566 6.90694544 6 11 C1.93774452 10.42176904 -0.84762346 9.10882263 -4.3125 6.9375 C-5.19550781 6.38964844 -6.07851562 5.84179688 -6.98828125 5.27734375 C-7.98408203 4.64505859 -7.98408203 4.64505859 -9 4 C-7.68 3.67 -6.36 3.34 -5 3 C-5 3.66 -5 4.32 -5 5 C-3.35 4.67 -1.7 4.34 0 4 C0 2.68 0 1.36 0 0 Z " fill="#5822D1" transform="translate(95,106)"/>
<path d="M0 0 C1.21405922 3.49551279 0.777272 5.69093297 -0.3125 9.1875 C-0.57675781 10.06792969 -0.84101563 10.94835937 -1.11328125 11.85546875 C-2 14 -2 14 -4 15 C-10.47058824 15.35294118 -10.47058824 15.35294118 -14 13 C-13.67 11.68 -13.34 10.36 -13 9 C-13 9.99 -13 10.98 -13 12 C-11.35 11.67 -9.7 11.34 -8 11 C-8 11.99 -8 12.98 -8 14 C-5.99279554 13.3920425 -5.99279554 13.3920425 -4 12 C-2.90170752 9.40587245 -2.90170752 9.40587245 -2.3125 6.4375 C-1.06101695 1.06101695 -1.06101695 1.06101695 0 0 Z " fill="#5225C8" transform="translate(214,85)"/>
<path d="M0 0 C4.875 3.625 4.875 3.625 6 7 C6.11904875 9.01829161 6.17521712 11.04073771 6.1875 13.0625 C6.20167969 14.12597656 6.21585938 15.18945312 6.23046875 16.28515625 C6 19 6 19 4 21 C0.375 21.125 0.375 21.125 -3 21 C-3 20.67 -3 20.34 -3 20 C-1.02 19.67 0.96 19.34 3 19 C3.33 14.38 3.66 9.76 4 5 C1.03 4.505 1.03 4.505 -2 4 C-1.34 3.67 -0.68 3.34 0 3 C0 2.01 0 1.02 0 0 Z " fill="#5A30B4" transform="translate(149,32)"/>
<path d="M0 0 C0.33 0 0.66 0 1 0 C1 1.98 1 3.96 1 6 C1.66 6.33 2.32 6.66 3 7 C2.505 7.433125 2.01 7.86625 1.5 8.3125 C-0.33218192 9.99740483 -0.33218192 9.99740483 0 13 C-0.639375 13.28875 -1.27875 13.5775 -1.9375 13.875 C-4.15206079 14.82823451 -4.15206079 14.82823451 -5 17 C-5.66 17 -6.32 17 -7 17 C-5.24009216 11.08030998 -2.60305395 5.58365008 0 0 Z " fill="#5622D0" transform="translate(36,49)"/>
<path d="M0 0 C2.86724686 0.57344937 3.8614515 0.8614515 6 3 C6.55239643 9.96019496 6.55239643 9.96019496 4.9375 13 C1.87672462 14.57975504 -0.63124415 14.36750064 -4 14 C-4.66 13.01 -5.32 12.02 -6 11 C-5.01 10.67 -4.02 10.34 -3 10 C-3 10.99 -3 11.98 -3 13 C-1.35 13 0.3 13 2 13 C2.165 11.72125 2.33 10.4425 2.5 9.125 C2.5928125 8.40570313 2.685625 7.68640625 2.78125 6.9453125 C3.0372485 4.99501656 3.0372485 4.99501656 3 3 C2.01 2.67 1.02 2.34 0 2 C0 1.34 0 0.68 0 0 Z " fill="#F19659" transform="translate(377,28)"/>
<path d="M0 0 C0.66 0 1.32 0 2 0 C4 3 4 3 3.625 6.1875 C3.41875 7.115625 3.2125 8.04375 3 9 C6.68754757 8.50168276 8.60490662 7.89932357 11 5 C10.34 6.65 9.68 8.3 9 10 C2.67402207 10.35807422 2.67402207 10.35807422 0 8.9375 C-1.58495594 5.86664787 -0.68036707 3.27813225 0 0 Z " fill="#EA845E" transform="translate(306,90)"/>
<path d="M0 0 C3.21658281 3.7949589 5.11135915 8.14984649 7.1875 12.625 C7.55552734 13.40101562 7.92355469 14.17703125 8.30273438 14.9765625 C11 20.7414048 11 20.7414048 11 23 C10.34 23 9.68 23 9 23 C8.67 21.35 8.34 19.7 8 18 C7.34 18 6.68 18 6 18 C5.65066406 17.14535156 5.30132812 16.29070313 4.94140625 15.41015625 C4.48636719 14.30542969 4.03132813 13.20070313 3.5625 12.0625 C3.11003906 10.96035156 2.65757813 9.85820313 2.19140625 8.72265625 C1.25575392 6.13431084 1.25575392 6.13431084 0 5 C-0.04063832 3.33382885 -0.042721 1.66611905 0 0 Z " fill="#5728C4" transform="translate(63,37)"/>
<path d="M0 0 C2.125 0.375 2.125 0.375 4 1 C2.7934375 1.556875 2.7934375 1.556875 1.5625 2.125 C-1.31172896 3.8109337 -1.31172896 3.8109337 -1.8125 7.1875 C-1.874375 8.115625 -1.93625 9.04375 -2 10 C-1.01 10.33 -0.02 10.66 1 11 C0.34 11.66 -0.32 12.32 -1 13 C-2.32 13 -3.64 13 -5 13 C-5 14.98 -5 16.96 -5 19 C-5.66 19 -6.32 19 -7 19 C-7.33 19.66 -7.66 20.32 -8 21 C-4.88 4.88 -4.88 4.88 0 0 Z " fill="#EB9363" transform="translate(328,29)"/>
<path d="M0 0 C3.10170489 3.10170489 4.42422804 7.02417561 6.1875 11 C6.56841797 11.83273438 6.94933594 12.66546875 7.34179688 13.5234375 C7.69693359 14.32007812 8.05207031 15.11671875 8.41796875 15.9375 C8.74563232 16.66839844 9.0732959 17.39929688 9.41088867 18.15234375 C10 20 10 20 9 22 C8.67 21.01 8.34 20.02 8 19 C7.34 19 6.68 19 6 19 C5.34 17.02 4.68 15.04 4 13 C3.01 13.495 3.01 13.495 2 14 C1.66179834 12.4176994 1.32964061 10.83410625 1 9.25 C0.814375 8.36828125 0.62875 7.4865625 0.4375 6.578125 C0 4 0 4 0 0 Z " fill="#5825C7" transform="translate(79,71)"/>
<path d="M0 0 C2.3125 -0.25 2.3125 -0.25 5 0 C7.14962714 2.19018614 7.94408929 3.50798579 8.29296875 6.578125 C8.25816406 7.45984375 8.22335937 8.3415625 8.1875 9.25 C8.16042969 10.14203125 8.13335937 11.0340625 8.10546875 11.953125 C8.07066406 12.62859375 8.03585937 13.3040625 8 14 C7.34 14 6.68 14 6 14 C5.79503906 13.44570313 5.59007812 12.89140625 5.37890625 12.3203125 C5.10949219 11.59585938 4.84007812 10.87140625 4.5625 10.125 C4.29566406 9.40570313 4.02882813 8.68640625 3.75390625 7.9453125 C3.02083146 5.96351155 3.02083146 5.96351155 2 4 C2.99 4 3.98 4 5 4 C3.74458443 1.48916886 2.49936512 1.12874554 0 0 Z " fill="#5E26CF" transform="translate(286,32)"/>
<path d="M0 0 C0.95792977 3.63852314 1.49800802 7.27091669 2 11 C1.38125 11.391875 0.7625 11.78375 0.125 12.1875 C-2.33662276 14.28711941 -2.89866715 16.01066797 -4 19 C-4.66 19.33 -5.32 19.66 -6 20 C-4.22089072 13.24947898 -2.29561809 6.59379663 0 0 Z " fill="#F3945F" transform="translate(316,60)"/>
<path d="M0 0 C1.4540625 0.0309375 1.4540625 0.0309375 2.9375 0.0625 C3.2675 0.7225 3.5975 1.3825 3.9375 2.0625 C4.5975 2.0625 5.2575 2.0625 5.9375 2.0625 C5.5625 4 5.5625 4 4.9375 6.0625 C3.9475 6.5575 3.9475 6.5575 2.9375 7.0625 C0.9575 5.4125 -1.0225 3.7625 -3.0625 2.0625 C-2.7325 3.7125 -2.4025 5.3625 -2.0625 7.0625 C-0.4125 7.3925 1.2375 7.7225 2.9375 8.0625 C2.9375 8.3925 2.9375 8.7225 2.9375 9.0625 C0.93795254 9.10504356 -1.06291636 9.10330783 -3.0625 9.0625 C-4.0625 8.0625 -4.0625 8.0625 -4.1875 4.5625 C-4.02748906 0.08219365 -4.02748906 0.08219365 0 0 Z " fill="#5B25CF" transform="translate(251.0625,45.9375)"/>
<path d="M0 0 C4.1117256 -0.02465746 8.22342278 -0.04283959 12.33520508 -0.05493164 C13.73495228 -0.0599708 15.1346942 -0.06680216 16.53442383 -0.07543945 C18.54245777 -0.0875232 20.55052957 -0.09269807 22.55859375 -0.09765625 C24.37315063 -0.10551147 24.37315063 -0.10551147 26.22436523 -0.11352539 C29 0 29 0 30 1 C30.04080783 2.99958364 30.04254356 5.00045254 30 7 C29.44965088 6.35111816 28.89930176 5.70223633 28.33227539 5.03369141 C25.53681437 2.5961126 24.33338327 2.49341404 20.68359375 2.4609375 C19.67232422 2.43773438 18.66105469 2.41453125 17.61914062 2.390625 C16.56919922 2.38546875 15.51925781 2.3803125 14.4375 2.375 C12.35274568 2.34949842 10.26806945 2.31600497 8.18359375 2.2734375 C7.26118896 2.26747559 6.33878418 2.26151367 5.38842773 2.25537109 C3 2 3 2 0 0 Z " fill="#5C2EC5" transform="translate(114,66)"/>
<path d="M0 0 C3.05936637 3.75467691 5 7.08113061 5 12 C3.02 12.66 1.04 13.32 -1 14 C-1.33 12.35 -1.66 10.7 -2 9 C-1.01 8.67 -0.02 8.34 1 8 C0.67 5.36 0.34 2.72 0 0 Z " fill="#5A1FD8" transform="translate(58,26)"/>
<path d="M0 0 C3.875 0.875 3.875 0.875 5 2 C5.04092937 4.33297433 5.04241723 6.66705225 5 9 C5.66 9 6.32 9 7 9 C7.33 13.62 7.66 18.24 8 23 C6.44342254 19.88684508 5.64926669 17.97546586 5 14.70703125 C4.7525 13.5149707 4.7525 13.5149707 4.5 12.29882812 C4.16440132 10.63001125 3.83109777 8.96073132 3.5 7.29101562 C3.335 6.50017578 3.17 5.70933594 3 4.89453125 C2.855625 4.17112549 2.71125 3.44771973 2.5625 2.70239258 C2.376875 2.14060303 2.19125 1.57881348 2 1 C1.34 0.67 0.68 0.34 0 0 Z " fill="#592AC8" transform="translate(192,71)"/>
<path d="M0 0 C2.15641331 3.23461997 2.81100973 5.67072961 3.6875 9.4375 C3.95949219 10.57058594 4.23148438 11.70367187 4.51171875 12.87109375 C4.96085657 15.74916889 4.98469931 17.31025087 4 20 C2.015625 18.515625 2.015625 18.515625 0 16 C-0.2906124 13.10550051 -0.38186045 10.62050065 -0.25 7.75 C-0.23195312 7.00492188 -0.21390625 6.25984375 -0.1953125 5.4921875 C-0.14835649 3.66090299 -0.07661652 1.83028351 0 0 Z " fill="#5925C8" transform="translate(198,49)"/>
<path d="M0 0 C2.5 1.125 2.5 1.125 4.1875 4.1875 C4.65621203 5.48918027 5.09224351 6.80295721 5.5 8.125 C5.71785156 8.81851563 5.93570313 9.51203125 6.16015625 10.2265625 C7.20535514 13.92282877 7.63426108 16.47105896 6.5 20.125 C4.32220218 16.85830327 3.99237313 14.8999839 3.4375 11.0625 C2.90937789 6.95553342 2.90937789 6.95553342 1.5 3.125 C-0.81 3.125 -3.12 3.125 -5.5 3.125 C-3.72172523 0.78516478 -2.99409023 0.14970451 0 0 Z " fill="#5B27BD" transform="translate(168.5,44.875)"/>
<path d="M0 0 C0.66 0 1.32 0 2 0 C2.69699552 1.45381897 3.38233866 2.91322953 4.0625 4.375 C4.63677734 5.59316406 4.63677734 5.59316406 5.22265625 6.8359375 C5.47917969 7.55007812 5.73570313 8.26421875 6 9 C5.67 9.66 5.34 10.32 5 11 C4.34 10.67 3.68 10.34 3 10 C3 9.01 3 8.02 3 7 C1.02 7.33 -0.96 7.66 -3 8 C-1.125 2.25 -1.125 2.25 0 0 Z " fill="#5625C6" transform="translate(52,15)"/>
<path d="M0 0 C0.66 0 1.32 0 2 0 C2 6.66666667 2 13.33333333 2 20 C-1.02399575 15.83006902 -1.35669966 12.85024376 -1.25 7.75 C-1.23453125 6.50734375 -1.2190625 5.2646875 -1.203125 3.984375 C-1 1 -1 1 0 0 Z " fill="#5B2DBF" transform="translate(108,75)"/>
<path d="M0 0 C0.99 0.495 0.99 0.495 2 1 C2.6328125 3.50390625 2.6328125 3.50390625 3.125 6.5625 C3.29257813 7.57441406 3.46015625 8.58632812 3.6328125 9.62890625 C3.75398437 10.41136719 3.87515625 11.19382812 4 12 C4.99 12.33 5.98 12.66 7 13 C7 13.66 7 14.32 7 15 C6.34 15 5.68 15 5 15 C5 16.65 5 18.3 5 20 C3.20958752 16.76168874 2.26249761 13.58584892 1.375 10 C1.11460937 8.96875 0.85421875 7.9375 0.5859375 6.875 C0 4 0 4 0 0 Z " fill="#5A26C9" transform="translate(167,67)"/>
<path d="M0 0 C-5.94 2.64 -11.88 5.28 -18 8 C-18.33 7.34 -18.66 6.68 -19 6 C-18.01 6 -17.02 6 -16 6 C-16 5.34 -16 4.68 -16 4 C-15.01 4 -14.02 4 -13 4 C-13 3.34 -13 2.68 -13 2 C-11.35 2 -9.7 2 -8 2 C-8 1.34 -8 0.68 -8 0 C-4.63458162 -1.08174162 -3.70152678 -0.92538169 0 0 Z " fill="#5525C1" transform="translate(49,113)"/>
<path d="M0 0 C3 1 3 1 5 4 C5.99 4.33 6.98 4.66 8 5 C8.33 4.01 8.66 3.02 9 2 C11 4 11 4 11 5 C12.98 5 14.96 5 17 5 C12.85714286 7.76190476 12.85714286 7.76190476 10 8 C2.48609681 5.36354274 2.48609681 5.36354274 0 2 C0 1.34 0 0.68 0 0 Z " fill="#561ECE" transform="translate(284,92)"/>
<path d="M0 0 C0.33 0 0.66 0 1 0 C0.67 2.97 0.34 5.94 0 9 C-0.99 9.33 -1.98 9.66 -3 10 C-3.70381157 11.98723268 -4.3711811 13.98777953 -5 16 C-5.66 16.33 -6.32 16.66 -7 17 C-5.24009216 11.08030998 -2.60305395 5.58365008 0 0 Z " fill="#5823C6" transform="translate(42,83)"/>
<path d="M0 0 C1.09658936 3.28976808 0.79953138 4.71303767 0 8 C-0.66 8 -1.32 8 -2 8 C-2.12375 8.7425 -2.2475 9.485 -2.375 10.25 C-2.95486701 12.80141485 -3.73708739 14.7267573 -5 17 C-5.66 17 -6.32 17 -7 17 C-5.24009216 11.08030998 -2.60305395 5.58365008 0 0 Z " fill="#5726C4" transform="translate(23,77)"/>
<path d="M0 0 C1 4 1 4 1 6 C1.66 6 2.32 6 3 6 C3 5.34 3 4.68 3 4 C4.32 4.33 5.64 4.66 7 5 C5.73760288 5.86658615 4.46472499 6.71792059 3.1875 7.5625 C2.12595703 8.27599609 2.12595703 8.27599609 1.04296875 9.00390625 C-1 10 -1 10 -4 9 C-2.68 6.03 -1.36 3.06 0 0 Z " fill="#562DB8" transform="translate(9,107)"/>
<path d="M0 0 C2.74792483 3.40219265 6 7.48464588 6 12 C5.01 12 4.02 12 3 12 C3 11.01 3 10.02 3 9 C2.01 8.67 1.02 8.34 0 8 C0 5.36 0 2.72 0 0 Z " fill="#5624C9" transform="translate(89,93)"/>
<path d="M0 0 C0.66 0 1.32 0 2 0 C1.40984815 5.50808397 0.43336231 10.64878069 -1 16 C-1.33 16 -1.66 16 -2 16 C-2.2358396 10.22192976 -1.86783046 5.48675196 0 0 Z " fill="#5928C8" transform="translate(190,72)"/>
<path d="M0 0 C1.32 0 2.64 0 4 0 C4 1.98 4 3.96 4 6 C2.35 6 0.7 6 -1 6 C-1.042721 4.33388095 -1.04063832 2.66617115 -1 1 C-0.67 0.67 -0.34 0.34 0 0 Z " fill="#5B18E8" transform="translate(269,47)"/>
<path d="M0 0 C1.1484375 1.703125 1.1484375 1.703125 2 4 C1.1015625 6.359375 1.1015625 6.359375 -0.375 8.75 C-1.09816406 9.94882813 -1.09816406 9.94882813 -1.8359375 11.171875 C-2.22007813 11.77515625 -2.60421875 12.3784375 -3 13 C-3.66 13 -4.32 13 -5 13 C-3.58192622 8.52761347 -1.88695626 4.28853694 0 0 Z " fill="#5723C9" transform="translate(34,100)"/>
<path d="M0 0 C0.33 0 0.66 0 1 0 C1.20674944 5.78898419 0.59162079 10.42932723 -1 16 C-1.33 16 -1.66 16 -2 16 C-2.05449838 14.27119018 -2.09301688 12.54187288 -2.125 10.8125 C-2.14820313 9.84957031 -2.17140625 8.88664062 -2.1953125 7.89453125 C-1.9913544 4.87187222 -1.26874632 2.73230015 0 0 Z " fill="#5A26CB" transform="translate(217,69)"/>
<path d="M0 0 C4.08718695 -0.24042276 7.17679443 0.57741188 11 2 C11 2.66 11 3.32 11 4 C11.66 4 12.32 4 13 4 C13 4.66 13 5.32 13 6 C10.04252596 5.03710148 7.15918654 4.07033824 4.3125 2.8125 C1.89030325 1.69610807 1.89030325 1.69610807 -1 3 C-0.67 2.01 -0.34 1.02 0 0 Z " fill="#5626C3" transform="translate(50,109)"/>
<path d="M0 0 C2.475 0.495 2.475 0.495 5 1 C4.67 2.98 4.34 4.96 4 7 C3.01 6.67 2.02 6.34 1 6 C0.67 4.02 0.34 2.04 0 0 Z " fill="#5819E6" transform="translate(218,47)"/>
<path d="M0 0 C2.97 0.495 2.97 0.495 6 1 C2.80009492 3.74277578 -0.00499382 5.6302836 -4 7 C-4 6.01 -4 5.02 -4 4 C-2.68 3.34 -1.36 2.68 0 2 C0 1.34 0 0.68 0 0 Z " fill="#5623C8" transform="translate(20,104)"/>
<path d="M0 0 C1.98 0.99 1.98 0.99 4 2 C4 3.98 4 5.96 4 8 C4.66 8 5.32 8 6 8 C6 9.65 6 11.3 6 13 C2.84297684 9.09130466 0 5.1385061 0 0 Z " fill="#5825C2" transform="translate(67,82)"/>
<path d="M0 0 C2 4 2 4 2 8 C2.66 8 3.32 8 4 8 C4.33 7.34 4.66 6.68 5 6 C5 7.32 5 8.64 5 10 C3.02 10 1.04 10 -1 10 C-0.67 6.7 -0.34 3.4 0 0 Z " fill="#5926CB" transform="translate(203,69)"/>
<path d="M0 0 C1.65 0 3.3 0 5 0 C6.2077558 3.62326739 5.54311128 4.64146369 4 8 C1.84622436 5.37801226 0.59927826 3.35595828 0 0 Z " fill="#5A20D6" transform="translate(63,74)"/>
<path d="M0 0 C1.5 1.0625 1.5 1.0625 3 3 C3.1875 6.6875 3.1875 6.6875 3 10 C3.66 10 4.32 10 5 10 C5 10.66 5 11.32 5 12 C4.01 11.67 3.02 11.34 2 11 C0.60955102 7.12137916 0 4.13537997 0 0 Z " fill="#5828CA" transform="translate(172,87)"/>
<path d="M0 0 C2 3 2 3 1.5390625 5.48046875 C1.23742187 6.37378906 0.93578125 7.26710938 0.625 8.1875 C0.32851563 9.08855469 0.03203125 9.98960938 -0.2734375 10.91796875 C-0.63308594 11.94857422 -0.63308594 11.94857422 -1 13 C-1.33 13 -1.66 13 -2 13 C-2.16682272 8.07872966 -2.24828052 4.49656104 0 0 Z " fill="#5827C3" transform="translate(256,33)"/>
<path d="M0 0 C1.89213369 2.38573379 3.02391783 4.07175348 4 7 C0.31245243 6.50168276 -1.60490662 5.89932357 -4 3 C-2.68 3.33 -1.36 3.66 0 4 C0 2.68 0 1.36 0 0 Z " fill="#5B32BD" transform="translate(97,110)"/>
<path d="M0 0 C1.45606519 4.52092968 0.27032841 7.51648796 -1 12 C-1.66 11.67 -2.32 11.34 -3 11 C-2.32829194 7.1936543 -1.27253436 3.64793184 0 0 Z " fill="#592CBF" transform="translate(214,85)"/>
<path d="M0 0 C2 3 2 3 1.625 5.1875 C1.41875 5.785625 1.2125 6.38375 1 7 C0.34 6.67 -0.32 6.34 -1 6 C-1 6.99 -1 7.98 -1 9 C-1.66 9 -2.32 9 -3 9 C-2.01 6.03 -1.02 3.06 0 0 Z " fill="#5823CE" transform="translate(44,32)"/>
<path d="M0 0 C1 4 1 4 0.0625 6.25 C-0.4634375 7.11625 -0.4634375 7.11625 -1 8 C-0.34 8.33 0.32 8.66 1 9 C-0.65 9.33 -2.3 9.66 -4 10 C-2.68 6.7 -1.36 3.4 0 0 Z " fill="#532CBA" transform="translate(28,113)"/>
<path d="M0 0 C2.15377564 2.62198774 3.40072174 4.64404172 4 8 C3.34 8 2.68 8 2 8 C1.67 7.34 1.34 6.68 1 6 C0.01 5.67 -0.98 5.34 -2 5 C-1.34 3.35 -0.68 1.7 0 0 Z " fill="#5721CB" transform="translate(69,97)"/>
<path d="M0 0 C0.91058531 3.07322544 1.08886184 5.80097361 1 9 C-0.65 9.66 -2.3 10.32 -4 11 C-2.7874262 7.27566618 -1.49140021 3.62197194 0 0 Z " fill="#5523CB" transform="translate(28,66)"/>
<path d="M0 0 C0.33 0 0.66 0 1 0 C1 3.3 1 6.6 1 10 C0.34 10 -0.32 10 -1 10 C-1.33 10.66 -1.66 11.32 -2 12 C-1 3.42857143 -1 3.42857143 0 0 Z " fill="#5A2BC0" transform="translate(210,63)"/>
<path d="M0 0 C1.32 0 2.64 0 4 0 C4 2.97 4 5.94 4 9 C1.3144406 6.3144406 0.93950026 3.62378672 0 0 Z " fill="#5E23D3" transform="translate(57,61)"/>
<path d="M0 0 C6.52307692 -0.36923077 6.52307692 -0.36923077 8.9375 1.5 C9.288125 1.995 9.63875 2.49 10 3 C9.67 3.99 9.34 4.98 9 6 C8.67 5.34 8.34 4.68 8 4 C6.11736119 3.09656316 6.11736119 3.09656316 3.9375 2.375 C3.20402344 2.11460938 2.47054688 1.85421875 1.71484375 1.5859375 C1.14894531 1.39257812 0.58304687 1.19921875 0 1 C0 0.67 0 0.34 0 0 Z " fill="#ED955E" transform="translate(335,29)"/>
<path d="M0 0 C2.125 0.9375 2.125 0.9375 4 2 C2.6875 3.5 2.6875 3.5 1 5 C0.01 5 -0.98 5 -2 5 C-2 3.68 -2 2.36 -2 1 C-1.34 0.67 -0.68 0.34 0 0 Z " fill="#6116F4" transform="translate(36,61)"/>
<path d="M0 0 C1.65 1.32 3.3 2.64 5 4 C4.67 5.32 4.34 6.64 4 8 C4 7.01 4 6.02 4 5 C1.03 4.505 1.03 4.505 -2 4 C-1.34 3.67 -0.68 3.34 0 3 C0 2.01 0 1.02 0 0 Z " fill="#5B26C5" transform="translate(149,32)"/>
</svg>
