<?xml version="1.0" encoding="UTF-8"?>
<svg version="1.1" xmlns="http://www.w3.org/2000/svg" width="399" height="133">
<path d="M0 0 C131.67 0 263.34 0 399 0 C399 43.89 399 87.78 399 133 C267.33 133 135.66 133 0 133 C0 89.11 0 45.22 0 0 Z " fill="#FEFDFE" transform="translate(0,0)"/>
<path d="M0 0 C0.66 0 1.32 0 2 0 C2.2902002 0.6305127 2.58040039 1.26102539 2.87939453 1.91064453 C9.15646141 15.54315246 15.46430202 29.16060578 21.81723022 42.75790405 C25.06145426 49.70160901 28.30336568 56.64633687 31.53125 63.59765625 C31.81733627 64.21371735 32.10342255 64.82977844 32.3981781 65.46450806 C33.78947167 68.46150984 35.17898039 71.45932636 36.56665039 74.45800781 C38.81892758 79.32227891 41.0763535 84.18218931 43.40234375 89.01171875 C43.91390015 90.08015015 43.91390015 90.08015015 44.43579102 91.17016602 C45.29207578 92.95240468 46.15728339 94.73034933 47.0234375 96.5078125 C47.50683594 97.74144531 47.50683594 97.74144531 48 99 C47.67 99.66 47.34 100.32 47 101 C33.17986843 94.5596788 23.893961 89.13739805 18.15185547 74.77490234 C16.76278748 71.42853805 15.22055605 68.163203 13.66015625 64.89453125 C11.32258518 59.97869015 8.99938665 55.05766794 6.72265625 50.11328125 C6.24578369 49.07985596 5.76891113 48.04643066 5.27758789 46.98168945 C4.01191654 44.02781134 2.97064417 41.06214105 2 38 C1.34 38 0.68 38 0 38 C-0.3861145 39.25441895 -0.3861145 39.25441895 -0.7800293 40.53417969 C-2.11005953 44.31266862 -3.75659586 47.86439695 -5.51953125 51.453125 C-5.85997971 52.15338806 -6.20042816 52.85365112 -6.55119324 53.57513428 C-7.63484111 55.8017923 -8.72363716 58.02588833 -9.8125 60.25 C-10.53222886 61.72770496 -11.25163276 63.20556824 -11.97070312 64.68359375 C-13.35245569 67.52220556 -14.7410033 70.35732902 -16.13500977 73.18994141 C-17.2742044 75.50655169 -18.38963312 77.82887335 -19.48803711 80.16552734 C-19.90964111 81.05191895 -20.33124512 81.93831055 -20.765625 82.8515625 C-21.11012695 83.59229004 -21.45462891 84.33301758 -21.80957031 85.09619141 C-24.22837216 88.96448854 -28.09414034 90.8534369 -32 93 C-33.23319912 93.71107033 -34.46486809 94.42479845 -35.6953125 95.140625 C-39.11469823 97.12206428 -42.55254199 99.06785426 -46 101 C-44.11762162 94.93197278 -41.85843086 89.23964216 -39.078125 83.53125 C-38.51274521 82.35250557 -38.51274521 82.35250557 -37.9359436 81.14994812 C-37.12950703 79.46916268 -36.32086816 77.78943238 -35.51019287 76.11068726 C-33.35638167 71.64872942 -31.22066554 67.17814364 -29.0859375 62.70703125 C-28.43934677 61.35343254 -28.43934677 61.35343254 -27.7796936 59.9724884 C-23.70657905 51.42456473 -19.76872752 42.81833094 -15.875 34.1875 C-14.67355459 31.525871 -13.47188287 28.86434477 -12.26953125 26.203125 C-11.9891954 25.58255722 -11.70885956 24.96198944 -11.42002869 24.32261658 C-7.72575091 16.16199939 -3.88339577 8.07199067 0 0 Z " fill="#601CEB" transform="translate(52,16)"/>
<path d="M0 0 C1.96549805 -0.0299707 1.96549805 -0.0299707 3.97070312 -0.06054688 C5.87045898 -0.05958008 5.87045898 -0.05958008 7.80859375 -0.05859375 C8.96029053 -0.06044678 10.1119873 -0.0622998 11.29858398 -0.06420898 C16.02003027 0.66154254 19.06858054 2.95930601 22.41796875 6.2734375 C24.00837838 9.28056014 23.92461838 11.68081689 23.875 15.0625 C23.87113281 16.20976563 23.86726563 17.35703125 23.86328125 18.5390625 C23.5625 21.4375 23.5625 21.4375 21.5625 23.4375 C18.5625 23.6875 18.5625 23.6875 15.5625 23.4375 C12.65058494 20.52558494 13.18343044 17.73427889 13.00390625 13.75 C12.85824219 12.986875 12.71257812 12.22375 12.5625 11.4375 C9.45033261 9.36272174 8.72189492 9.18227412 5.18359375 9.171875 C4.34505859 9.16929688 3.50652344 9.16671875 2.64257812 9.1640625 C1.77052734 9.17179687 0.89847656 9.17953125 0 9.1875 C-0.87591797 9.17976563 -1.75183594 9.17203125 -2.65429688 9.1640625 C-3.91016602 9.16792969 -3.91016602 9.16792969 -5.19140625 9.171875 C-6.34104858 9.17525879 -6.34104858 9.17525879 -7.51391602 9.17871094 C-9.67595654 9.27161516 -9.67595654 9.27161516 -11.4375 11.4375 C-11.60951285 13.97979159 -11.67007617 16.39899996 -11.625 18.9375 C-11.6240332 19.97197266 -11.6240332 19.97197266 -11.62304688 21.02734375 C-11.64115609 24.85985194 -11.64115609 24.85985194 -10.4375 28.4375 C-9.75236328 28.44160889 -9.06722656 28.44571777 -8.36132812 28.44995117 C-5.21921011 28.48310147 -2.07897628 28.55376885 1.0625 28.625 C2.14015625 28.63080078 3.2178125 28.63660156 4.328125 28.64257812 C11.22558922 28.83183781 16.32273664 29.71168879 21.5625 34.4375 C24.66150079 39.08600119 23.93107454 43.8444342 23.9375 49.3125 C23.96199219 50.40175781 23.98648438 51.49101563 24.01171875 52.61328125 C24.04096819 60.578879 24.04096819 60.578879 21.8515625 64.5078125 C15.01097954 70.27444728 9.29833383 69.92355301 0.625 69.875 C-0.63763672 69.89498047 -1.90027344 69.91496094 -3.20117188 69.93554688 C-14.66161987 69.92949915 -14.66161987 69.92949915 -19.4375 65.4375 C-22.93833028 61.45379658 -23.5902372 58.09637188 -23.625 52.875 C-23.63917969 51.90433594 -23.65335937 50.93367188 -23.66796875 49.93359375 C-23.4375 47.4375 -23.4375 47.4375 -21.4375 45.4375 C-17.38488713 45.09259678 -15.88995824 45.13586118 -12.4375 47.4375 C-11.9609375 50.00390625 -11.9609375 50.00390625 -11.8125 53 C-11.9176445 56.5311834 -11.9176445 56.5311834 -10.4375 59.4375 C-8.72977642 59.52463831 -7.01851351 59.54450007 -5.30859375 59.53515625 C-4.27412109 59.53193359 -3.23964844 59.52871094 -2.17382812 59.52539062 C-1.08521484 59.51701172 0.00339844 59.50863281 1.125 59.5 C2.21748047 59.49548828 3.30996094 59.49097656 4.43554688 59.48632812 C7.14455432 59.4744984 9.8535338 59.45656231 12.5625 59.4375 C12.5625 52.8375 12.5625 46.2375 12.5625 39.4375 C10.850625 39.42332031 9.13875 39.40914062 7.375 39.39453125 C5.10414032 39.34761266 2.83330781 39.29936539 0.5625 39.25 C-0.56285156 39.24419922 -1.68820313 39.23839844 -2.84765625 39.23242188 C-9.93248709 39.04597896 -15.07468548 38.30042759 -20.4375 33.4375 C-24.24569196 29.1466857 -23.92128551 24.46589835 -23.875 19 C-23.89498047 18.16662109 -23.91496094 17.33324219 -23.93554688 16.47460938 C-23.93121344 10.99281751 -23.19671285 7.69794123 -19.4375 3.4375 C-13.47003172 -0.93907914 -7.11858422 -0.03840335 0 0 Z " fill="#621DEB" transform="translate(130.4375,29.5625)"/>
<path d="M0 0 C2.5625 0.4375 2.5625 0.4375 4.12231445 2.6105957 C5.57258388 5.4572934 6.4125199 8.00696625 7.16796875 11.10546875 C7.42900391 12.16314453 7.69003906 13.22082031 7.95898438 14.31054688 C8.22001953 15.40431641 8.48105469 16.49808594 8.75 17.625 C9.15895508 19.28305664 9.15895508 19.28305664 9.57617188 20.97460938 C11.5625 29.11407425 11.5625 29.11407425 11.5625 31.4375 C12.2225 31.1075 12.8825 30.7775 13.5625 30.4375 C14.47534307 27.66550607 14.47534307 27.66550607 15.21875 24.28515625 C15.51910156 23.03412109 15.81945312 21.78308594 16.12890625 20.49414062 C16.44095065 19.16295856 16.75213886 17.83157552 17.0625 16.5 C17.66886279 13.90541221 18.28481561 11.31374428 18.90625 8.72265625 C19.17630859 7.56644775 19.44636719 6.41023926 19.72460938 5.21899414 C20.5625 2.4375 20.5625 2.4375 22.5625 0.4375 C25.5 0.0625 25.5 0.0625 28.5625 0.4375 C31.18442191 3.22632942 32.11608954 5.76487023 32.9140625 9.46484375 C33.12546875 10.42197266 33.336875 11.37910156 33.5546875 12.36523438 C33.76351562 13.35845703 33.97234375 14.35167969 34.1875 15.375 C34.4040625 16.36435547 34.620625 17.35371094 34.84375 18.37304688 C35.79091358 22.72005996 36.6964729 27.07360411 37.5625 31.4375 C38.5525 31.4375 39.5425 31.4375 40.5625 31.4375 C40.665625 30.35339844 40.76875 29.26929687 40.875 28.15234375 C41.56672884 22.62703786 43.06632567 17.35305767 44.5625 12 C44.83578125 10.99517578 45.1090625 9.99035156 45.390625 8.95507812 C47.42708333 1.57291667 47.42708333 1.57291667 48.5625 0.4375 C50.90194736 0.72480055 53.2364143 1.05686779 55.5625 1.4375 C56.98390375 6.0481784 55.94493982 9.54665586 54.5625 14 C51.69779 23.69490208 49.27642045 33.48333329 46.88671875 43.30493164 C46.45552734 45.05858032 46.45552734 45.05858032 46.015625 46.84765625 C45.75942383 47.90090088 45.50322266 48.95414551 45.23925781 50.03930664 C44.5625 52.4375 44.5625 52.4375 43.5625 53.4375 C42.04321962 53.50929964 40.52082518 53.52142007 39 53.5 C38.17371094 53.49097656 37.34742188 53.48195312 36.49609375 53.47265625 C35.85800781 53.46105469 35.21992188 53.44945312 34.5625 53.4375 C27.10599627 34.79624068 27.10599627 34.79624068 27.5625 26.4375 C26.5725 26.7675 25.5825 27.0975 24.5625 27.4375 C23.61244272 29.80406585 23.61244272 29.80406585 23.02734375 32.71484375 C22.77533203 33.78541016 22.52332031 34.85597656 22.26367188 35.95898438 C22.01166016 37.08626953 21.75964844 38.21355469 21.5 39.375 C20.99460559 41.59389789 20.4831777 43.81143282 19.96484375 46.02734375 C19.74304443 47.01597412 19.52124512 48.00460449 19.29272461 49.02319336 C18.5625 51.4375 18.5625 51.4375 16.5625 53.4375 C14.6875 53.703125 14.6875 53.703125 12.5625 53.6875 C11.86125 53.69265625 11.16 53.6978125 10.4375 53.703125 C8.5625 53.4375 8.5625 53.4375 6.5625 51.4375 C5.7847674 48.91507376 5.1005615 46.42630646 4.46875 43.8671875 C4.27655884 43.11212921 4.08436768 42.35707092 3.88635254 41.57913208 C3.27185046 39.15852418 2.66707373 36.73560456 2.0625 34.3125 C1.65558394 32.70296407 1.2480389 31.09358701 0.83984375 29.484375 C-0.08819999 25.81935596 -1.01147948 22.15321324 -1.92407227 18.48431396 C-2.27796402 17.07350085 -2.6382125 15.66427218 -3.00366211 14.25640869 C-4.04980609 10.19637927 -4.83807151 6.64350083 -4.4375 2.4375 C-2.4375 0.4375 -2.4375 0.4375 0 0 Z " fill="#621DEB" transform="translate(167.4375,45.5625)"/>
<path d="M0 0 C1.546875 0.03287109 1.546875 0.03287109 3.125 0.06640625 C4.15625 0.06511719 5.1875 0.06382813 6.25 0.0625 C9.84518084 0.7707897 10.781983 1.85371858 13.125 4.62890625 C14.32733154 7.26472473 14.32733154 7.26472473 15.32324219 10.29614258 C15.70333435 11.43445023 16.08342651 12.57275787 16.47503662 13.74555969 C17.06747162 15.58467171 17.06747162 15.58467171 17.671875 17.4609375 C18.09138111 18.73907571 18.5116614 20.01696006 18.93267822 21.29460144 C19.81107644 23.96939805 20.68084171 26.64680355 21.54443359 29.32641602 C22.64765731 32.7476183 23.77079036 36.16187497 24.90037155 39.5744524 C25.77109777 42.21178455 26.63170165 44.85233491 27.48929596 47.49396324 C28.0977897 49.3628551 28.7141948 51.22916517 29.33074951 53.09541321 C31.14728731 58.7690198 32.68597039 63.65413508 32.125 69.62890625 C29.86956835 71.04899285 28.37391558 71.62131492 25.69140625 71.703125 C23.125 70.62890625 23.125 70.62890625 21.3515625 67.11328125 C20.79611584 65.54262604 20.26386225 63.96365367 19.75 62.37890625 C19.45818848 61.53279785 19.16637695 60.68668945 18.86572266 59.81494141 C17.93260443 57.09247288 17.02900547 54.36116159 16.125 51.62890625 C15.51744496 49.84963793 14.90808811 48.07098377 14.296875 46.29296875 C11.43605776 37.91204827 8.71655457 29.49102401 6.1875 21.00390625 C5.97593262 20.29927246 5.76436523 19.59463867 5.54638672 18.86865234 C4.71315308 16.01296564 4.125 13.62148693 4.125 10.62890625 C3.465 10.62890625 2.805 10.62890625 2.125 10.62890625 C1.8775 11.84578125 1.63 13.06265625 1.375 14.31640625 C-1.18131143 25.77760968 -5.25536367 36.88623874 -9 48.00390625 C-9.87941267 50.6152822 -10.75670852 53.22735615 -11.6328125 55.83984375 C-12.0158252 56.97728027 -12.39883789 58.1147168 -12.79345703 59.28662109 C-13.55729888 61.64711655 -14.24970453 64.03129967 -14.89013672 66.42822266 C-15.875 69.62890625 -15.875 69.62890625 -17.875 71.62890625 C-21.60796326 72.01177428 -22.65126323 71.7780641 -25.875 69.62890625 C-26.96047289 62.6627812 -24.05933452 56.17488127 -21.859375 49.65234375 C-21.44713684 48.40893219 -21.03489868 47.16552063 -20.61016846 45.88442993 C-19.73926668 43.26144313 -18.86087878 40.6411194 -17.97705078 38.02246094 C-16.84865561 34.67717898 -15.7392566 31.32595743 -14.63540268 27.97250938 C-13.57445009 24.75818215 -12.49746566 21.54930275 -11.421875 18.33984375 C-11.02691833 17.14080414 -10.63196167 15.94176453 -10.22503662 14.70639038 C-9.84494446 13.58817902 -9.46485229 12.46996765 -9.07324219 11.31787109 C-8.58026642 9.84729752 -8.58026642 9.84729752 -8.07733154 8.34701538 C-6.24838212 4.21231215 -4.56513787 0.99862391 0 0 Z " fill="#FF9452" transform="translate(331.875,28.37109375)"/>
<path d="M0 0 C0.66 0 1.32 0 2 0 C4.69431917 5.76787946 7.38859211 11.5357786 10.07861328 17.30566406 C10.3968103 17.98816223 10.71500732 18.6706604 11.04284668 19.37384033 C11.69920066 20.78166671 12.35553168 22.18950379 13.01184082 23.59735107 C14.96624495 27.78824444 16.92562122 31.97676229 18.8896637 36.16314697 C20.09886129 38.74197352 21.30505009 41.32220016 22.51065063 43.90270996 C23.0864199 45.13324576 23.66354651 46.36314738 24.24203491 47.59240723 C25.04765209 49.30476216 25.84817582 51.01951067 26.6484375 52.734375 C27.10395996 53.70600586 27.55948242 54.67763672 28.02880859 55.67871094 C29 58 29 58 29 60 C22.63190778 58.10510427 16.84206976 55.11226526 10.90039062 52.18945312 C10.08634766 51.79564453 9.27230469 51.40183594 8.43359375 50.99609375 C7.70197021 50.63700928 6.97034668 50.2779248 6.21655273 49.90795898 C2.40617712 48.34712774 0.13225323 47.60919157 -3.86254883 48.98803711 C-5.39431763 49.7499939 -5.39431763 49.7499939 -6.95703125 50.52734375 C-8.06884766 51.07197266 -9.18066406 51.61660156 -10.32617188 52.17773438 C-11.47666016 52.75845703 -12.62714844 53.33917969 -13.8125 53.9375 C-14.98232422 54.51435547 -16.15214844 55.09121094 -17.35742188 55.68554688 C-20.24463044 57.11147437 -23.12486701 58.54991915 -26 60 C-26.33 59.34 -26.66 58.68 -27 58 C-26.14233398 55.67871094 -26.14233398 55.67871094 -24.74609375 52.734375 C-24.22748779 51.6299707 -23.70888184 50.52556641 -23.17456055 49.38769531 C-22.59564707 48.17507926 -22.01662415 46.96251545 -21.4375 45.75 C-20.85182715 44.50916318 -20.26695918 43.26794618 -19.68286133 42.02636719 C-18.4438175 39.39478969 -17.20075964 36.76516037 -15.95507812 34.13671875 C-12.98407279 27.86036737 -10.058644 21.56272097 -7.12747192 15.2677002 C-5.62232448 12.03682041 -4.11396028 8.80744446 -2.60546875 5.578125 C-2.10168701 4.49950195 -1.59790527 3.42087891 -1.07885742 2.30957031 C-0.72283447 1.54741211 -0.36681152 0.78525391 0 0 Z " fill="#611CEB" transform="translate(52,63)"/>
<path d="M0 0 C3 0.1875 3 0.1875 5 1.1875 C5 5.1475 5 9.1075 5 13.1875 C7.165625 13.125625 7.165625 13.125625 9.375 13.0625 C11.8359375 12.9921875 11.8359375 12.9921875 14 13.1875 C16 15.1875 16 15.1875 16.1875 17.75 C16 20.1875 16 20.1875 15 21.1875 C13.31391034 21.25955511 11.62499341 21.27136068 9.9375 21.25 C9.01839844 21.24097656 8.09929687 21.23195313 7.15234375 21.22265625 C6.44207031 21.21105469 5.73179687 21.19945313 5 21.1875 C5.11794962 26.15389957 5.24217518 31.12008651 5.37231445 36.08618164 C5.41572439 37.77689299 5.45739489 39.46764991 5.49731445 41.15844727 C5.55487094 43.58363606 5.61860649 46.00859415 5.68359375 48.43359375 C5.70030624 49.19401474 5.71701874 49.95443573 5.73423767 50.73789978 C5.52091268 54.25832031 5.52091268 54.25832031 7 57.1875 C8.134375 57.331875 9.26875 57.47625 10.4375 57.625 C14 58.1875 14 58.1875 16 60.1875 C16.1875 62.75 16.1875 62.75 16 65.1875 C14.29441557 66.89308443 12.14005782 66.39980676 9.8125 66.4375 C5.12903032 66.37068007 1.81615045 66.1450166 -2 63.1875 C-4.69492876 58.06476539 -5.4198012 53.86238099 -5.29296875 48.06640625 C-5.28660149 46.94926491 -5.28660149 46.94926491 -5.28010559 45.80955505 C-5.26345724 43.45598527 -5.22583375 41.10330621 -5.1875 38.75 C-5.17243515 37.14389267 -5.15874991 35.53777177 -5.14648438 33.93164062 C-5.11359952 30.01658953 -5.06191626 26.10219521 -5 22.1875 C-5.804375 22.043125 -6.60875 21.89875 -7.4375 21.75 C-10 21.1875 -10 21.1875 -11 20.1875 C-11.125 17.1875 -11.125 17.1875 -11 14.1875 C-10 13.1875 -10 13.1875 -7.4375 13.125 C-6.633125 13.145625 -5.82875 13.16625 -5 13.1875 C-5.02320313 12.41664062 -5.04640625 11.64578125 -5.0703125 10.8515625 C-5.08835937 9.84867188 -5.10640625 8.84578125 -5.125 7.8125 C-5.14820313 6.81476562 -5.17140625 5.81703125 -5.1953125 4.7890625 C-4.90143216 0.87457637 -3.85261779 0.24078861 0 0 Z " fill="#6420EB" transform="translate(288,32.8125)"/>
<path d="M0 0 C2 2 2 2 2.25 4.5 C2 7 2 7 0 9 C-1.98821313 9.39764263 -3.98944339 9.73775349 -6 10 C-6.33 12.31 -6.66 14.62 -7 17 C-5.700625 16.979375 -4.40125 16.95875 -3.0625 16.9375 C-1.70834367 16.91600546 -0.35243917 16.92851801 1 17 C2 18 2 18 2.125 21 C2 24 2 24 1 25 C-0.51928038 25.07179964 -2.04167482 25.08392007 -3.5625 25.0625 C-4.38878906 25.05347656 -5.21507812 25.04445313 -6.06640625 25.03515625 C-7.02353516 25.01775391 -7.02353516 25.01775391 -8 25 C-7.99777939 25.54901474 -7.99555878 26.09802948 -7.99327087 26.66368103 C-7.97121642 32.35707959 -7.95609274 38.0504661 -7.94506836 43.74389648 C-7.94002702 45.87118014 -7.93319409 47.99846031 -7.92456055 50.12573242 C-7.91248621 53.17627826 -7.90676986 56.22677845 -7.90234375 59.27734375 C-7.89718246 60.23462875 -7.89202118 61.19191376 -7.88670349 62.1782074 C-7.88659019 63.49946373 -7.88659019 63.49946373 -7.88647461 64.84741211 C-7.884254 65.62684677 -7.88203339 66.40628143 -7.87974548 67.20933533 C-8 69 -8 69 -9 70 C-12.5 70.125 -12.5 70.125 -16 70 C-17 69 -17 69 -17.12025452 67.20933533 C-17.11803391 66.42990067 -17.11581329 65.650466 -17.11352539 64.84741211 C-17.11341209 63.52615578 -17.11341209 63.52615578 -17.11329651 62.1782074 C-17.10555458 60.74227989 -17.10555458 60.74227989 -17.09765625 59.27734375 C-17.0962413 58.30213272 -17.09482635 57.32692169 -17.09336853 56.32215881 C-17.08775133 53.19390857 -17.07519593 50.06572877 -17.0625 46.9375 C-17.05748722 44.82226666 -17.05292393 42.70703219 -17.04882812 40.59179688 C-17.03777631 35.39450704 -17.02102146 30.19725855 -17 25 C-18.7015625 25.0309375 -18.7015625 25.0309375 -20.4375 25.0625 C-24 25 -24 25 -25 24 C-25.1875 21.5625 -25.1875 21.5625 -25 19 C-23 17 -23 17 -19.875 16.875 C-18.451875 16.936875 -18.451875 16.936875 -17 17 C-17.05800781 16.33613281 -17.11601562 15.67226563 -17.17578125 14.98828125 C-17.54570259 7.74839213 -17.54570259 7.74839213 -14.8125 4 C-9.80665164 0.44028561 -6.18942942 -0.46712675 0 0 Z " fill="#611CEB" transform="translate(272,29)"/>
<path d="M0 0 C3 0.25 3 0.25 5 2.25 C5.24723816 4.38197327 5.24723816 4.38197327 5.24291992 7.05102539 C5.24599655 8.04868423 5.24907318 9.04634308 5.25224304 10.07423401 C5.24505753 11.15446335 5.23787201 12.23469269 5.23046875 13.34765625 C5.22978142 15.00455727 5.22978142 15.00455727 5.2290802 16.69493103 C5.22605547 19.03271558 5.21816264 21.37049808 5.20581055 23.70825195 C5.18755834 27.30101603 5.18530078 30.89352254 5.18554688 34.48632812 C5.18063174 36.75260641 5.17480344 39.01888294 5.16796875 41.28515625 C5.16685593 42.36740982 5.1657431 43.44966339 5.16459656 44.56471252 C5.15821671 45.55921921 5.15183685 46.55372589 5.14526367 47.57836914 C5.14145187 48.45836075 5.13764008 49.33835236 5.13371277 50.24501038 C5 52.25 5 52.25 4 53.25 C0.5625 53.4375 0.5625 53.4375 -3 53.25 C-5.49261318 50.75738682 -5.25242752 49.9949321 -5.25878906 46.55664062 C-5.26509338 45.58223022 -5.27139771 44.60781982 -5.27789307 43.60388184 C-5.2738446 42.54866333 -5.26979614 41.49344482 -5.265625 40.40625 C-5.26753845 39.32621704 -5.2694519 38.24618408 -5.27142334 37.13342285 C-5.27278607 34.84692146 -5.26908352 32.56041236 -5.26074219 30.27392578 C-5.25004412 26.76447245 -5.26063473 23.25553107 -5.2734375 19.74609375 C-5.27211592 17.5286447 -5.26955356 15.31119597 -5.265625 13.09375 C-5.26967346 12.03853149 -5.27372192 10.98331299 -5.27789307 9.89611816 C-5.27158875 8.92170776 -5.26528442 7.94729736 -5.25878906 6.94335938 C-5.25719788 6.08335327 -5.25560669 5.22334717 -5.25396729 4.33728027 C-4.81658946 0.74260424 -3.45031782 0.28752649 0 0 Z " fill="#FF9553" transform="translate(376,45.75)"/>
<path d="M0 0 C3 0.25 3 0.25 5 2.25 C5.24723816 4.38197327 5.24723816 4.38197327 5.24291992 7.05102539 C5.24599655 8.04868423 5.24907318 9.04634308 5.25224304 10.07423401 C5.24505753 11.15446335 5.23787201 12.23469269 5.23046875 13.34765625 C5.22978142 15.00455727 5.22978142 15.00455727 5.2290802 16.69493103 C5.22605547 19.03271558 5.21816264 21.37049808 5.20581055 23.70825195 C5.18755834 27.30101603 5.18530078 30.89352254 5.18554688 34.48632812 C5.18063174 36.75260641 5.17480344 39.01888294 5.16796875 41.28515625 C5.16685593 42.36740982 5.1657431 43.44966339 5.16459656 44.56471252 C5.15821671 45.55921921 5.15183685 46.55372589 5.14526367 47.57836914 C5.14145187 48.45836075 5.13764008 49.33835236 5.13371277 50.24501038 C5 52.25 5 52.25 4 53.25 C0.5625 53.4375 0.5625 53.4375 -3 53.25 C-5.49261318 50.75738682 -5.25242752 49.9949321 -5.25878906 46.55664062 C-5.26509338 45.58223022 -5.27139771 44.60781982 -5.27789307 43.60388184 C-5.2738446 42.54866333 -5.26979614 41.49344482 -5.265625 40.40625 C-5.26753845 39.32621704 -5.2694519 38.24618408 -5.27142334 37.13342285 C-5.27278607 34.84692146 -5.26908352 32.56041236 -5.26074219 30.27392578 C-5.25004412 26.76447245 -5.26063473 23.25553107 -5.2734375 19.74609375 C-5.27211592 17.5286447 -5.26955356 15.31119597 -5.265625 13.09375 C-5.26967346 12.03853149 -5.27372192 10.98331299 -5.27789307 9.89611816 C-5.27158875 8.92170776 -5.26528442 7.94729736 -5.25878906 6.94335938 C-5.25719788 6.08335327 -5.25560669 5.22334717 -5.25396729 4.33728027 C-4.81658946 0.74260424 -3.45031782 0.28752649 0 0 Z " fill="#6420EB" transform="translate(235,45.75)"/>
<path d="M0 0 C3.4375 1 3.4375 1 5.4375 2.6875 C6.82656225 5.89970645 6.49271374 7.6936636 5.4375 11 C3.32334778 13.2651631 1.96593896 13.89431221 -1.0625 14.5 C-3.5625 14 -3.5625 14 -5.875 11.8125 C-7.71206543 8.75072428 -8.276437 7.4804429 -7.5625 4 C-5.24958684 0.48437199 -4.25397332 0 0 0 Z " fill="#FF9859" transform="translate(335.5625,71)"/>
<path d="M0 0 C3.03247414 2.13092777 3.87637987 3.34069266 4.5625 7 C4 10 4 10 1.875 12.4375 C-1 14 -1 14 -4.1875 13.9375 C-7 13 -7 13 -9 10 C-9.375 6.5 -9.375 6.5 -9 3 C-6.35893733 -0.03233122 -3.92985113 -0.68772395 0 0 Z " fill="#FF9656" transform="translate(379,28)"/>
<path d="M0 0 C2.3125 1.625 2.3125 1.625 4 4 C4.45319325 7.17235276 4.52990283 9.06487736 2.9375 11.875 C-0.1069286 13.64273274 -2.5631012 13.36823916 -6 13 C-7.9375 11.9375 -7.9375 11.9375 -9 10 C-9.4375 6.5 -9.4375 6.5 -9 3 C-6.35893733 -0.03233122 -3.92985113 -0.68772395 0 0 Z " fill="#6420EB" transform="translate(238,28)"/>
</svg>
