<?xml version="1.0" encoding="UTF-8"?>
<svg version="1.1" xmlns="http://www.w3.org/2000/svg" width="500" height="500">
<path d="M0 0 C2.21419388 2.21419388 3.06880402 4.03743143 4.37109375 6.87890625 C5.09389526 8.44632568 5.09389526 8.44632568 5.83129883 10.04541016 C6.36134521 11.2060498 6.8913916 12.36668945 7.4375 13.5625 C8.00691632 14.80019266 8.57683691 16.03765343 9.1472168 17.27490234 C10.40896697 20.01296377 11.66852525 22.75201962 12.92675781 25.49169922 C16.3017146 32.83587495 19.70019861 40.16918336 23.09780884 47.50289917 C23.91150904 49.25939831 24.72496294 51.01601156 25.53817749 52.7727356 C31.38659891 65.40584239 37.29229292 78.01052269 43.2409668 90.59667969 C48.02745641 100.73054794 52.70255244 110.90974383 57.3125 121.125 C63.72062205 135.32415777 70.37454449 149.39956303 77.07983398 163.46044922 C83.29827922 176.50203166 89.41850965 189.58492785 95.47607422 202.70214844 C98.12277063 208.42973176 100.78035604 214.15225789 103.4375 219.875 C104.24525879 221.61535522 104.24525879 221.61535522 105.06933594 223.39086914 C109.19409323 232.27434686 113.33633385 241.14960232 117.48269653 250.02301025 C121.18498062 257.94758041 124.87340382 265.87843559 128.546875 273.81640625 C128.93973694 274.66533447 129.33259888 275.5142627 129.73736572 276.38891602 C130.54314339 278.13022318 131.34890907 279.87153589 132.15466309 281.612854 C138.84558554 296.07192605 145.57362712 310.51223003 152.3699646 324.92205811 C158.44030089 337.7930419 164.44772295 350.69221868 170.42773438 363.60546875 C173.09465691 369.36337106 175.76579341 375.11931625 178.4375 380.875 C178.97213867 382.02677734 179.50677734 383.17855469 180.05761719 384.36523438 C183.71789193 392.24721605 187.38692532 400.12506993 191.06246948 407.99993896 C191.93140379 409.86193672 192.79984568 411.7241635 193.66821289 413.58642578 C196.4325734 419.51278059 199.20296043 425.43617532 201.98884583 431.35244751 C203.30310921 434.14439362 204.61458623 436.9376442 205.92581177 439.73101807 C206.55516527 441.0696918 207.1859082 442.40771325 207.81808472 443.74505615 C208.69203772 445.59405038 209.56099038 447.44540563 210.4296875 449.296875 C210.92710449 450.35229492 211.42452148 451.40771484 211.93701172 452.49511719 C213 455 213 455 213 457 C209.2840365 455.59839424 205.88037671 453.91581295 202.4140625 451.98046875 C201.33044434 451.37710693 200.24682617 450.77374512 199.13037109 450.15209961 C197.96185552 449.49733755 196.79339999 448.8424683 195.625 448.1875 C194.40847286 447.50835327 193.19183725 446.8294008 191.97509766 446.15063477 C183.48814979 441.41170749 175.02065826 436.63822677 166.56469727 431.84423828 C160.62946051 428.48006591 154.68173499 425.13977636 148.71728516 421.82763672 C146.6119175 420.64966054 144.51386997 419.45850607 142.42333984 418.25439453 C137.26343793 415.29268951 132.15521365 412.57729636 126.68359375 410.234375 C107.33353061 401.43158287 101.52881253 387.10916614 93.84033203 368.41699219 C91.19741981 362.00714466 88.20998411 355.76835928 85.25 349.5 C84.20144605 347.22994143 83.15455335 344.95911474 82.109375 342.6875 C78.97948722 335.92252187 75.74926591 329.20828718 72.5 322.5 C67.51613166 312.20898538 62.66804558 301.86156025 57.875 291.48046875 C54.1587904 283.4495254 50.35680647 275.46428799 46.5 267.5 C41.66859467 257.51965584 36.95809751 247.48997936 32.31005859 237.4230957 C26.53584146 224.9444187 20.6238299 212.53161179 14.71044922 200.1184082 C10.09719172 190.43202905 5.51866362 180.7308938 1 171 C-5.35817688 183.64496449 -11.59983966 196.34550265 -17.8125 209.0625 C-18.54324738 210.55759094 -18.54324738 210.55759094 -19.28875732 212.08288574 C-25.84090504 225.49071818 -32.35689349 238.91346343 -38.75927734 252.39355469 C-41.13933034 257.39344563 -43.53975025 262.3835784 -45.9375 267.375 C-46.94662507 269.47655746 -47.95573966 271.57811996 -48.96484375 273.6796875 C-49.71677002 275.24541504 -49.71677002 275.24541504 -50.48388672 276.84277344 C-52.98994908 282.06151715 -55.49492296 287.28078326 -58 292.5 C-58.99999471 294.58333587 -59.99999471 296.66666921 -61 298.75 C-61.7425 300.296875 -61.7425 300.296875 -62.5 301.875 C-67 311.25 -67 311.25 -68.49902344 314.37280273 C-69.50244786 316.46337908 -70.50570214 318.55403709 -71.50878906 320.64477539 C-73.9550311 325.74296259 -76.4038733 330.83985926 -78.859375 335.93359375 C-79.823118 337.93479889 -80.78665796 339.93610182 -81.75 341.9375 C-82.46833008 343.42890503 -82.46833008 343.42890503 -83.20117188 344.95043945 C-86.22959333 351.25686131 -89.2137993 357.58221991 -92.171875 363.921875 C-92.89614407 365.47144246 -93.62042793 367.021003 -94.34472656 368.57055664 C-95.75849139 371.59583984 -97.16563809 374.62408789 -98.56933594 377.65405273 C-99.22308201 379.05462991 -99.87704345 380.4551066 -100.53125 381.85546875 C-100.82247742 382.48882141 -101.11370483 383.12217407 -101.41375732 383.77471924 C-104.71088566 390.80194643 -107.59896306 395.23014907 -114.40625 399.14453125 C-115.03430542 399.51128464 -115.66236084 399.87803802 -116.30944824 400.25590515 C-118.36610168 401.45373749 -120.43293427 402.63274383 -122.5 403.8125 C-123.95145343 404.65464469 -125.40196235 405.4984192 -126.8515625 406.34375 C-129.07322448 407.63925894 -131.29531179 408.93393317 -133.52026367 410.2237854 C-140.40747686 414.2184259 -147.20911737 418.3443779 -154 422.5 C-164.29356488 428.77589315 -174.6317764 434.97323553 -185 441.125 C-185.66741211 441.52114502 -186.33482422 441.91729004 -187.02246094 442.32543945 C-195.32745741 447.25305697 -203.65098988 452.14723504 -212 457 C-211.42983002 451.58578987 -209.52522825 447.3986735 -207.16796875 442.578125 C-206.78024292 441.76940948 -206.39251709 440.96069397 -205.99304199 440.12747192 C-205.16233923 438.39677227 -204.32824101 436.66769898 -203.49105835 434.94012451 C-201.73195703 431.30990606 -199.98924769 427.67190657 -198.24580383 424.03414917 C-197.37462252 422.21663863 -196.50262515 420.39951901 -195.62980652 418.58279419 C-192.24973322 411.54306252 -188.94111202 404.47420304 -185.6875 397.375 C-184.75143651 395.33587578 -183.81523858 393.29681328 -182.87890625 391.2578125 C-182.1830542 389.7423584 -182.1830542 389.7423584 -181.47314453 388.19628906 C-178.71152024 382.20437902 -175.91755747 376.22753691 -173.125 370.25 C-172.83258423 369.62391846 -172.54016846 368.99783691 -172.2388916 368.3527832 C-170.75517102 365.17609677 -169.27105653 361.99959464 -167.78662109 358.82324219 C-164.83527079 352.50792874 -161.88601539 346.19163745 -158.9375 339.875 C-158.64731995 339.25338989 -158.35713989 338.63177979 -158.0581665 337.99133301 C-153.86096868 328.9993801 -149.67620304 320.00172767 -145.5 311 C-141.03217352 301.36968346 -136.5532373 291.74464758 -132.0625 282.125 C-131.77230988 281.50336975 -131.48211975 280.8817395 -131.18313599 280.24127197 C-128.82745981 275.1953664 -126.47105625 270.14980058 -124.11462402 265.10424805 C-122.05524337 260.69465708 -119.99614953 256.28493235 -117.9375 251.875 C-117.64722931 251.25320862 -117.35695862 250.63141724 -117.05789185 249.99078369 C-112.86078857 240.99901256 -108.67611688 232.00154195 -104.5 223 C-100.03217352 213.36968346 -95.5532373 203.74464758 -91.0625 194.125 C-90.77230988 193.50336975 -90.48211975 192.8817395 -90.18313599 192.24127197 C-87.82745981 187.1953664 -85.47105625 182.14980058 -83.11462402 177.10424805 C-81.05524337 172.69465708 -78.99614953 168.28493235 -76.9375 163.875 C-76.64722931 163.25320862 -76.35695862 162.63141724 -76.05789185 161.99078369 C-71.31838041 151.83697064 -66.59637164 141.67510672 -61.88110352 131.51000977 C-57.77394584 122.65883481 -53.64792114 113.81655589 -49.51702881 104.97644043 C-44.60224257 94.45654051 -39.72005356 83.9217332 -34.84396362 73.3838501 C-28.69819973 60.1045196 -22.54121414 46.83057695 -16.32122803 33.58581543 C-15.66501273 32.18825591 -15.00942089 30.79040341 -14.35455322 29.39221191 C-9.72611595 19.51451996 -4.91589689 9.73773654 0 0 Z " fill="#5D18EB" transform="translate(250,8)"/>
<path d="M0 0 C0.66 0 1.32 0 2 0 C9.91113106 16.69639423 17.77544658 33.40913028 25.375 50.25 C31.15136984 63.04818438 37.11687011 75.74870381 43.1552124 88.4251709 C48.69753848 100.06613892 54.10780071 111.75769044 59.40673828 123.51123047 C64.47235782 134.73825306 69.70312987 145.88037699 75 157 C80.61339111 168.78408975 86.1350879 180.60068459 91.5 192.5 C96.93048952 204.54324243 102.51412731 216.50677023 108.1875 228.4375 C113.53677426 239.69140513 118.88029793 250.94688694 124.125 262.25 C124.62797607 263.32693115 125.13095215 264.4038623 125.64916992 265.51342773 C126.09752197 266.48352783 126.54587402 267.45362793 127.0078125 268.453125 C127.39598145 269.29004883 127.78415039 270.12697266 128.18408203 270.98925781 C129 273 129 273 129 275 C124.34744903 273.54879491 119.96162826 271.70256748 115.55078125 269.6484375 C114.83312592 269.31741028 114.11547058 268.98638306 113.37606812 268.64532471 C111.02023932 267.55801911 108.66640862 266.46645548 106.3125 265.375 C103.81411676 264.22090925 101.31520781 263.06796173 98.81629944 261.91500854 C97.10139579 261.12365302 95.3866657 260.33192129 93.67210388 259.53982544 C85.75475724 255.88273216 77.82481084 252.25356555 69.89126587 248.6317749 C67.68946796 247.62589905 65.48853425 246.61815514 63.2878418 245.60986328 C56.94236386 242.70389005 50.59304979 239.81026347 44.21484375 236.9765625 C29.96495499 230.61612108 16.00962799 223.67308532 3 215 C-1.01854473 215.33728492 -4.00395206 216.90210011 -7.48828125 218.8515625 C-8.57004639 219.44775391 -9.65181152 220.04394531 -10.76635742 220.65820312 C-11.34195404 220.97797119 -11.91755066 221.29773926 -12.5105896 221.62719727 C-28.63923917 230.55839087 -45.23736514 238.34662921 -62 246 C-63.37732641 246.63026672 -64.75460499 247.26063798 -66.13183594 247.89111328 C-75.03741797 251.96543512 -83.95598449 256.01074194 -92.88085938 260.04260254 C-95.07569642 261.03419856 -97.27029501 262.02632078 -99.46484375 263.01855469 C-108.30799782 267.0165804 -117.1530225 271.01044196 -126 275 C-126.33 274.34 -126.66 273.68 -127 273 C-126.09587524 270.71490441 -125.12848217 268.55643996 -124.0546875 266.3515625 C-123.73381668 265.67660233 -123.41294586 265.00164215 -123.08235168 264.30622864 C-122.38604961 262.84391831 -121.6861101 261.3833358 -120.98300171 259.92428589 C-119.86295708 257.60000896 -118.75210847 255.27154369 -117.64379883 252.94165039 C-116.13800661 249.77675092 -114.62929231 246.61327175 -113.11865234 243.45068359 C-110.26476645 237.46636938 -107.4711566 231.45479769 -104.6875 225.4375 C-104.17727295 224.33696289 -103.6670459 223.23642578 -103.14135742 222.10253906 C-100.70757916 216.8519254 -98.27732282 211.59968533 -95.84765625 206.34716797 C-93.46178391 201.18938671 -91.07490669 196.0320712 -88.6875 190.875 C-88.28175751 189.99834686 -87.87601501 189.12169373 -87.45797729 188.21847534 C-81.61080295 175.58831756 -75.70633958 162.98658396 -69.7590332 150.40332031 C-64.65618101 139.59965501 -59.68746822 128.74066102 -54.77380371 117.84985352 C-49.49511585 106.16258206 -44.02683242 94.57173649 -38.5 83 C-31.98392707 69.35632173 -25.60510815 55.6618644 -19.38452148 41.88110352 C-15.01316282 32.20041324 -10.5632415 22.55871838 -6.0625 12.9375 C-5.59751602 11.94348175 -5.59751602 11.94348175 -5.12313843 10.92938232 C-3.41775899 7.28515875 -1.70999415 3.64206029 0 0 Z " fill="#5D18EB" transform="translate(249,217)"/>
<path d="M0 0 C0.33 0 0.66 0 1 0 C1.6875 2.8125 1.6875 2.8125 2 6 C0.6875 7.875 0.6875 7.875 -1 9 C-1.66 9 -2.32 9 -3 9 C-2.89300781 9.59167969 -2.78601563 10.18335938 -2.67578125 10.79296875 C-1.68295429 17.33708624 -1.68295429 17.33708624 -3.375 20.875 C-3.91125 21.57625 -4.4475 22.2775 -5 23 C-5.33 23.99 -5.66 24.98 -6 26 C-3.36 26.33 -0.72 26.66 2 27 C2 26.34 2 25.68 2 25 C3.32 25 4.64 25 6 25 C6 24.01 6 23.02 6 22 C9.05847848 21.45627049 11.88772805 21 15 21 C15 20.34 15 19.68 15 19 C17.31 18.67 19.62 18.34 22 18 C18.48318041 20.94513928 14.54509783 22.72196208 10.390625 24.57421875 C9.66381531 24.90291458 8.93700562 25.23161041 8.18817139 25.57026672 C5.87750525 26.61398024 3.56382969 27.65082158 1.25 28.6875 C-0.32181842 29.39603236 -1.89343537 30.10501183 -3.46484375 30.81445312 C-7.3075816 32.54815623 -11.15303212 34.27570464 -15 36 C-15.33 35.34 -15.66 34.68 -16 34 C-14.94385489 31.39074509 -13.82252149 28.896597 -12.59765625 26.3671875 C-12.24110458 25.61535187 -11.88455292 24.86351624 -11.51719666 24.08889771 C-10.3730171 21.68066637 -9.21791399 19.27785847 -8.0625 16.875 C-7.28638603 15.24643828 -6.51098592 13.61753614 -5.73632812 11.98828125 C-3.83248973 7.98818571 -1.91883632 3.99292137 0 0 Z " fill="#5A1BDF" transform="translate(138,456)"/>
<path d="M0 0 C2.51893305 1.50886584 4.8693802 2.9613105 7 5 C7.125 7.6875 7.125 7.6875 7 11 C8.06209896 13.53235993 9.33194631 15.90408708 10.62109375 18.328125 C16 28.75070822 16 28.75070822 16 33 C19.04913228 34.01111093 19.04913228 34.01111093 22 33 C23.0931757 37.37270282 23 41.51056976 23 46 C23.43354565 48.84715499 23.43354565 48.84715499 24 51 C20.84622433 47.25303186 18.94731484 43.00883054 16.875 38.61328125 C16.48683105 37.7968364 16.09866211 36.98039154 15.69873047 36.13920593 C14.87959275 34.41295841 14.06274868 32.68562087 13.24804688 30.95727539 C12.01104359 28.33590281 10.7638681 25.71955117 9.515625 23.10351562 C8.71812741 21.41956555 7.92123315 19.73532957 7.125 18.05078125 C6.75616699 17.27857742 6.38733398 16.5063736 6.00732422 15.71076965 C3.60191404 10.58237293 1.67573484 5.41027679 0 0 Z " fill="#5524C9" transform="translate(289,257)"/>
<path d="M0 0 C3.21658281 3.7949589 5.11135915 8.14984649 7.1875 12.625 C7.55552734 13.40101563 7.92355469 14.17703125 8.30273438 14.9765625 C11 20.7414048 11 20.7414048 11 23 C5.31531835 21.28137532 0.01576119 18.8358325 -5.375 16.375 C-6.30183594 15.95476562 -7.22867187 15.53453125 -8.18359375 15.1015625 C-10.45694599 14.07035118 -12.72902406 13.03643137 -15 12 C-11.75060613 11.09836485 -9.63051559 11.02606933 -6.3125 11.75 C-5.52488281 11.90984375 -4.73726563 12.0696875 -3.92578125 12.234375 C-3.29027344 12.48703125 -2.65476562 12.7396875 -2 13 C-1.67 13.99 -1.34 14.98 -1 16 C0.98 16 2.96 16 5 16 C4.5359375 14.6696875 4.5359375 14.6696875 4.0625 13.3125 C3.1709329 10.53290845 2.50622993 7.86863625 2 5 C1.34 5 0.68 5 0 5 C0 3.35 0 1.7 0 0 Z " fill="#5522C8" transform="translate(367,469)"/>
<path d="M0 0 C0.66 0 1.32 0 2 0 C-1.52464161 11.32658268 -5.81579859 24.77813473 -16.6328125 30.84375 C-17.41398438 31.2253125 -18.19515625 31.606875 -19 32 C-20.33582544 32.80839621 -21.66947285 33.62041278 -23 34.4375 C-26 36 -26 36 -28 36 C-27.67 35.01 -27.34 34.02 -27 33 C-26.01 33 -25.02 33 -24 33 C-24 32.34 -24 31.68 -24 31 C-23.113125 30.566875 -22.22625 30.13375 -21.3125 29.6875 C-15.814 27.2608764 -15.814 27.2608764 -12 23 C-11.34 23 -10.68 23 -10 23 C-10 21.68 -10 20.36 -10 19 C-9.34 19 -8.68 19 -8 19 C-7.86722656 18.38511719 -7.73445313 17.77023437 -7.59765625 17.13671875 C-7.33275391 15.92435547 -7.33275391 15.92435547 -7.0625 14.6875 C-6.80146484 13.48673828 -6.80146484 13.48673828 -6.53515625 12.26171875 C-6 10 -6 10 -5 7 C-4.01 7 -3.02 7 -2 7 C-2 5.68 -2 4.36 -2 3 C-1.34 3 -0.68 3 0 3 C0 2.01 0 1.02 0 0 Z " fill="#5322C3" transform="translate(153,376)"/>
<path d="M0 0 C2.55993768 2.55993768 3.61847135 5.21038188 5.125 8.5 C5.93324219 10.24796875 5.93324219 10.24796875 6.7578125 12.03125 C8 15 8 15 8 17 C4.20950293 15.57250019 0.72877544 13.83763458 -2.8125 11.875 C-4.27623047 11.06675781 -4.27623047 11.06675781 -5.76953125 10.2421875 C-6.50558594 9.83226562 -7.24164063 9.42234375 -8 9 C-6.68 8.67 -5.36 8.34 -4 8 C-3.8453125 7.0409375 -3.8453125 7.0409375 -3.6875 6.0625 C-3.460625 5.381875 -3.23375 4.70125 -3 4 C-2.01 3.67 -1.02 3.34 0 3 C0 2.01 0 1.02 0 0 Z " fill="#581DD7" transform="translate(455,448)"/>
<path d="M0 0 C2.72211039 3.32371578 4.46611922 6.82395046 6.28515625 10.70703125 C6.58691269 11.35065109 6.88866913 11.99427094 7.1995697 12.65739441 C7.83465333 14.01539293 8.46738588 15.37449316 9.09790039 16.73461914 C10.05603533 18.79857421 11.0245388 20.85742714 11.99414062 22.91601562 C12.6126131 24.24189198 13.23047163 25.56805492 13.84765625 26.89453125 C14.40461182 28.08925049 14.96156738 29.28396973 15.53540039 30.51489258 C17.00101783 34.002422 18.04061689 37.34886034 19 41 C14.06996883 36.8094735 11.76840497 30.70211174 9.64453125 24.7734375 C8.2120875 20.83204682 6.03999053 17.30446117 3.953125 13.68359375 C2.89877357 11.8211943 1.92606555 9.92930323 1 8 C0.67 8 0.34 8 0 8 C0 5.36 0 2.72 0 0 Z " fill="#5524C8" transform="translate(377,281)"/>
<path d="M0 0 C1.01492872 3.5149608 0.83453136 5.29007469 -0.4375 8.75 C-0.72496094 9.54921875 -1.01242188 10.3484375 -1.30859375 11.171875 C-1.53675781 11.77515625 -1.76492187 12.3784375 -2 13 C-2.66 13 -3.32 13 -4 13 C-3.67 13.66 -3.34 14.32 -3 15 C-1.02 15 0.96 15 3 15 C0.69716746 17.54131358 -1.67313793 19.07110295 -4.6875 20.6875 C-5.89986328 21.34298828 -5.89986328 21.34298828 -7.13671875 22.01171875 C-8.05904297 22.50091797 -8.05904297 22.50091797 -9 23 C-8.43997169 17.43527426 -6.3654757 13.0732061 -3.9375 8.125 C-3.37192383 6.949375 -3.37192383 6.949375 -2.79492188 5.75 C-1.87006766 3.83004947 -0.93596022 1.914561 0 0 Z " fill="#5425C3" transform="translate(47,442)"/>
<path d="M0 0 C1.32 0 2.64 0 4 0 C4.67119549 1.4562545 5.33681807 2.91507867 6 4.375 C6.556875 5.59316406 6.556875 5.59316406 7.125 6.8359375 C8 9 8 9 8 11 C8.66 11 9.32 11 10 11 C10 12.98 10 14.96 10 17 C7.51372483 13.9377256 5.90010596 10.8542946 4.3125 7.25 C3.87550781 6.26515625 3.43851563 5.2803125 2.98828125 4.265625 C2.66214844 3.51796875 2.33601562 2.7703125 2 2 C1.45730469 3.10859375 0.91460937 4.2171875 0.35546875 5.359375 C-0.36697274 6.82302269 -1.08964092 8.2865585 -1.8125 9.75 C-2.16892578 10.47960937 -2.52535156 11.20921875 -2.89257812 11.9609375 C-4.67530517 15.55910218 -6.41088339 18.89632709 -9 22 C-8.40075776 17.80530429 -7.42500059 13.99000166 -6 10 C-5.34 10 -4.68 10 -4 10 C-4 8.68 -4 7.36 -4 6 C-3.34 6 -2.68 6 -2 6 C-1.855625 5.38125 -1.71125 4.7625 -1.5625 4.125 C-1 2 -1 2 0 0 Z " fill="#5626C2" transform="translate(249,177)"/>
<path d="M0 0 C3.04795133 4.571927 5.26556427 9.54389474 7.65014648 14.48730469 C8.55726505 16.36416869 9.47279902 18.23677068 10.38867188 20.109375 C10.96294922 21.29789062 11.53722656 22.48640625 12.12890625 23.7109375 C12.65556885 24.79681152 13.18223145 25.88268555 13.72485352 27.00146484 C14.8769834 29.71072375 15.55892724 32.10094597 16 35 C15.34 34.67 14.68 34.34 14 34 C14 33.01 14 32.02 14 31 C13.34 31 12.68 31 12 31 C11.484375 29.824375 10.96875 28.64875 10.4375 27.4375 C8.46512645 22.99789215 6.42884379 18.58981603 4.375 14.1875 C4.07392334 13.54159912 3.77284668 12.89569824 3.46264648 12.23022461 C1.68875325 8.43650776 1.68875325 8.43650776 -0.2734375 4.73828125 C-1 3 -1 3 0 0 Z " fill="#5322C7" transform="translate(259,236)"/>
<path d="M0 0 C0.33 0.66 0.66 1.32 1 2 C0.19555664 4.15478516 0.19555664 4.15478516 -1.08984375 6.7890625 C-1.54423828 7.73007812 -1.99863281 8.67109375 -2.46679688 9.640625 C-2.95212891 10.62546875 -3.43746094 11.6103125 -3.9375 12.625 C-4.41896484 13.61757813 -4.90042969 14.61015625 -5.39648438 15.6328125 C-6.59064111 18.09206598 -7.7920631 20.54749335 -9 23 C-9.33 23 -9.66 23 -10 23 C-10 21.35 -10 19.7 -10 18 C-9.34 18 -8.68 18 -8 18 C-7.67 15.69 -7.34 13.38 -7 11 C-6.34 11 -5.68 11 -5 11 C-5 10.34 -5 9.68 -5 9 C-6.32 8.34 -7.64 7.68 -9 7 C-8.34 6.67 -7.68 6.34 -7 6 C-6.67 5.01 -6.34 4.02 -6 3 C-5.01 3.66 -4.02 4.32 -3 5 C-2.814375 4.0409375 -2.814375 4.0409375 -2.625 3.0625 C-2.41875 2.381875 -2.2125 1.70125 -2 1 C-1.34 0.67 -0.68 0.34 0 0 Z " fill="#561ED3" transform="translate(209,261)"/>
<path d="M0 0 C1.13583456 3.71727674 0.66670026 5.47051709 -1 9 C-0.01 8.67 0.98 8.34 2 8 C1.49396008 10.16874252 1.00016187 11.99967627 0 14 C-2.5625 14.625 -2.5625 14.625 -5 15 C-5 16.32 -5 17.64 -5 19 C-5.66 19 -6.32 19 -7 19 C-7 19.99 -7 20.98 -7 22 C-7.66 22 -8.32 22 -9 22 C-6.66062389 14.33204498 -3.45231194 7.22862726 0 0 Z " fill="#5821D1" transform="translate(148,225)"/>
<path d="M0 0 C2.09383797 2.64551454 3.6764185 5.17592288 5.04296875 8.2578125 C5.39423828 9.04800781 5.74550781 9.83820312 6.10742188 10.65234375 C6.64206055 11.87630859 6.64206055 11.87630859 7.1875 13.125 C7.73954102 14.36056641 7.73954102 14.36056641 8.30273438 15.62109375 C11 21.73623029 11 21.73623029 11 24 C10.34 24 9.68 24 9 24 C9 22.68 9 21.36 9 20 C8.01 19.67 7.02 19.34 6 19 C5.34 18.34 4.68 17.68 4 17 C3.34 16.67 2.68 16.34 2 16 C2.04125 14.7625 2.0825 13.525 2.125 12.25 C2.13680417 8.89761691 1.67658519 6.93402409 0 4 C0 2.68 0 1.36 0 0 Z " fill="#591FD9" transform="translate(256,21)"/>
<path d="M0 0 C2.625 2.375 2.625 2.375 5 5 C5 5.66 5 6.32 5 7 C4.113125 6.690625 3.22625 6.38125 2.3125 6.0625 C1.219375 5.711875 0.12625 5.36125 -1 5 C-1.76570313 4.7421875 -2.53140625 4.484375 -3.3203125 4.21875 C-7.13999706 3.90693902 -8.99524402 5.40318035 -12.1875 7.4375 C-17.84148728 11 -17.84148728 11 -20 11 C-20 10.34 -20 9.68 -20 9 C-19.01 9 -18.02 9 -17 9 C-17 8.34 -17 7.68 -17 7 C-16.01 7 -15.02 7 -14 7 C-14 6.34 -14 5.68 -14 5 C-13.01 5 -12.02 5 -11 5 C-11 4.34 -11 3.68 -11 3 C-9.54293274 2.49632243 -8.08429904 1.99717444 -6.625 1.5 C-5.81289062 1.2215625 -5.00078125 0.943125 -4.1640625 0.65625 C-2 0 -2 0 0 0 Z " fill="#5524C5" transform="translate(254,428)"/>
<path d="M0 0 C0.66 0 1.32 0 2 0 C0.68106727 4.19759919 -0.90240838 8.09645985 -2.8203125 12.0546875 C-3.35527344 13.16328125 -3.89023438 14.271875 -4.44140625 15.4140625 C-4.99699219 16.55617188 -5.55257812 17.69828125 -6.125 18.875 C-6.96998047 20.62296875 -6.96998047 20.62296875 -7.83203125 22.40625 C-9.21812761 25.27241534 -10.60754522 28.13691978 -12 31 C-13.25541557 27.23375329 -12.37061958 25.62811066 -11 22 C-10.34 22 -9.68 22 -9 22 C-7.78727997 18.68523192 -6.97328734 15.77103438 -6.5625 12.25 C-6.376875 11.1775 -6.19125 10.105 -6 9 C-5.01 8.34 -4.02 7.68 -3 7 C-1.92863949 4.69855891 -0.92010283 2.3659787 0 0 Z " fill="#5123BE" transform="translate(177,326)"/>
<path d="M0 0 C0.66 0 1.32 0 2 0 C3.36698387 2.78556882 4.71634538 5.57931328 6.0625 8.375 C6.45244141 9.1690625 6.84238281 9.963125 7.24414062 10.78125 C7.60830078 11.54179687 7.97246094 12.30234375 8.34765625 13.0859375 C8.85824585 14.1385376 8.85824585 14.1385376 9.37915039 15.21240234 C9.58403076 15.80230957 9.78891113 16.3922168 10 17 C9.67 17.66 9.34 18.32 9 19 C4.125 14.375 4.125 14.375 3 11 C2.96125079 9.33378384 2.9549714 7.66605828 3 6 C0.87635519 5.77390663 0.87635519 5.77390663 -0.625 7.5 C-1.07875 7.995 -1.5325 8.49 -2 9 C-2.33 8.34 -2.66 7.68 -3 7 C-2.06421005 4.64018187 -1.06652192 2.30368736 0 0 Z " fill="#5326BF" transform="translate(249,217)"/>
<path d="M0 0 C3.29728107 4.20241705 6 8.52961599 6 14 C4.35 14.33 2.7 14.66 1 15 C-1.80396138 10.05183286 -0.77350507 5.38317715 0 0 Z " fill="#591DDB" transform="translate(361,456)"/>
<path d="M0 0 C0.99 0.33 1.98 0.66 3 1 C3.66 0.67 4.32 0.34 5 0 C6.0931757 4.37270282 6 8.51056976 6 13 C6.43354565 15.84715499 6.43354565 15.84715499 7 18 C2.37283863 12.27113355 0.62243796 7.2202803 0 0 Z " fill="#5B19E7" transform="translate(306,290)"/>
<path d="M0 0 C1.32334913 4.17222572 0.23046355 6.84718553 -1 11 C-0.67 11.66 -0.34 12.32 0 13 C-1.28965176 14.37562854 -2.62689293 15.70766393 -4 17 C-4.66 17 -5.32 17 -6 17 C-6.33 18.32 -6.66 19.64 -7 21 C-7.66 21 -8.32 21 -9 21 C-7.50640515 16.15713185 -5.54966433 11.68649104 -3.375 7.125 C-2.88773437 6.09246094 -2.88773437 6.09246094 -2.390625 5.0390625 C-1.59676528 3.35794781 -0.79880442 1.67877079 0 0 Z " fill="#5622CE" transform="translate(84,363)"/>
<path d="M0 0 C0.58203125 1.85449219 0.58203125 1.85449219 1 4 C0.04548536 5.69312716 -0.96210419 7.35666496 -2 9 C-3.0917073 12.38750352 -4.01289436 15.79792403 -4.9375 19.234375 C-5.288125 20.14703125 -5.63875 21.0596875 -6 22 C-6.99 22.33 -7.98 22.66 -9 23 C-9 23.66 -9 24.32 -9 25 C-9.66 25 -10.32 25 -11 25 C-9.33913088 19.43335076 -6.88928264 14.34213647 -4.375 9.125 C-3.95476562 8.24585938 -3.53453125 7.36671875 -3.1015625 6.4609375 C-2.0708308 4.30577122 -1.03690574 2.15220078 0 0 Z " fill="#5425C8" transform="translate(112,303)"/>
<path d="M0 0 C0.66 0 1.32 0 2 0 C-0.25411666 7.37780846 -3.30216559 14.13894512 -6.6875 21.0625 C-7.19861328 22.11888672 -7.70972656 23.17527344 -8.23632812 24.26367188 C-9.48603874 26.84484987 -10.74067122 29.4235047 -12 32 C-13.12380503 28.62858491 -12.98197462 27.35507997 -12 24 C-11.01971384 22.65210653 -10.02028865 21.31787285 -9 20 C-8.29485154 17.85266073 -8.29485154 17.85266073 -8 16 C-7.34 16 -6.68 16 -6 16 C-5.7525 15.21625 -5.505 14.4325 -5.25 13.625 C-3.66068507 9.01598671 -1.83792827 4.51452284 0 0 Z " fill="#5224BA" transform="translate(195,288)"/>
<path d="M0 0 C0.33 0 0.66 0 1 0 C1.1875 2.8125 1.1875 2.8125 1 6 C0.01979625 7.0194119 -0.97803008 8.02246356 -2 9 C-1.835 9.61875 -1.67 10.2375 -1.5 10.875 C-1 13 -1 13 -2.25 15.5625 C-3.7314038 17.62588387 -5.04600313 19.38582867 -7 21 C-7.66 21 -8.32 21 -9 21 C-7.50640515 16.15713185 -5.54966433 11.68649104 -3.375 7.125 C-2.88773438 6.09246094 -2.88773438 6.09246094 -2.390625 5.0390625 C-1.59676528 3.35794781 -0.79880442 1.67877079 0 0 Z " fill="#5821D4" transform="translate(138,247)"/>
<path d="M0 0 C0.9075 0.0825 1.815 0.165 2.75 0.25 C-1.52378294 3.89252558 -6.11703655 6.72092061 -10.9375 9.5625 C-12.09475586 10.26342773 -12.09475586 10.26342773 -13.27539062 10.97851562 C-14.01337891 11.41486328 -14.75136719 11.85121094 -15.51171875 12.30078125 C-16.51658325 12.89886597 -16.51658325 12.89886597 -17.54174805 13.5090332 C-18.10547119 13.75355225 -18.66919434 13.99807129 -19.25 14.25 C-19.91 13.92 -20.57 13.59 -21.25 13.25 C-20.26 12.92 -19.27 12.59 -18.25 12.25 C-18.25 11.26 -18.25 10.27 -18.25 9.25 C-16.27 8.92 -14.29 8.59 -12.25 8.25 C-12.25 7.59 -12.25 6.93 -12.25 6.25 C-11.5075 6.0025 -10.765 5.755 -10 5.5 C-7.15288795 4.42370747 -7.15288795 4.42370747 -5.3125 2.125 C-3.25 0.25 -3.25 0.25 0 0 Z " fill="#5323C5" transform="translate(71.25,442.75)"/>
<path d="M0 0 C0.33 0 0.66 0 1 0 C1.75 2.75 1.75 2.75 2 6 C0.69112542 7.35735142 -0.64852862 8.68505488 -2 10 C-3.15118574 12.46439022 -4.09755238 14.96865776 -5.05078125 17.515625 C-6.17896615 20.46840524 -7.52924346 23.20556257 -9 26 C-9.66 26 -10.32 26 -11 26 C-8.34810503 16.88411104 -4.1194169 8.5225941 0 0 Z " fill="#5425C7" transform="translate(74,384)"/>
<path d="M0 0 C0.33 0 0.66 0 1 0 C0.91266424 1.60517097 0.80447776 3.20921662 0.6875 4.8125 C0.62949219 5.70582031 0.57148437 6.59914063 0.51171875 7.51953125 C-0.09229042 10.44736194 -0.8923703 10.9719035 -3 13 C-4.12511932 15.19822583 -5.18249727 17.4318272 -6.1875 19.6875 C-6.71730469 20.86699219 -7.24710937 22.04648437 -7.79296875 23.26171875 C-8.19128906 24.16535156 -8.58960937 25.06898438 -9 26 C-9.66 26 -10.32 26 -11 26 C-9.28137532 20.31531835 -6.8358325 15.01576119 -4.375 9.625 C-3.95476562 8.69816406 -3.53453125 7.77132813 -3.1015625 6.81640625 C-2.07035118 4.54305401 -1.03643137 2.27097594 0 0 Z " fill="#5628C5" transform="translate(100,328)"/>
<path d="M0 0 C10.63934426 -0.18032787 10.63934426 -0.18032787 15 2 C15 2.99 15 3.98 15 5 C16.65 5.66 18.3 6.32 20 7 C20 7.66 20 8.32 20 9 C13.06001352 6.83836487 6.56882431 4.1063786 0 1 C0 0.67 0 0.34 0 0 Z " fill="#5521CD" transform="translate(304,458)"/>
<path d="M0 0 C-3.45218057 1.70030784 -6.91263989 3.38303052 -10.375 5.0625 C-11.35984375 5.54783203 -12.3446875 6.03316406 -13.359375 6.53320312 C-14.77089844 7.21479492 -14.77089844 7.21479492 -16.2109375 7.91015625 C-17.08024902 8.33433838 -17.94956055 8.75852051 -18.84521484 9.19555664 C-19.9118335 9.5937561 -19.9118335 9.5937561 -21 10 C-21.66 9.67 -22.32 9.34 -23 9 C-22.01 8.67 -21.02 8.34 -20 8 C-20 7.34 -20 6.68 -20 6 C-18.68 6 -17.36 6 -16 6 C-16 5.01 -16 4.02 -16 3 C-12.94152152 2.45627049 -10.11227195 2 -7 2 C-7 1.34 -7 0.68 -7 0 C-3.98968256 -0.93423645 -3.13349732 -1.04449911 0 0 Z " fill="#5423CB" transform="translate(160,475)"/>
<path d="M0 0 C2.96430761 3.55716913 4.7721925 7.45050932 6.6875 11.625 C7.00783203 12.305625 7.32816406 12.98625 7.65820312 13.6875 C10 18.74058835 10 18.74058835 10 21 C9.01 20.67 8.02 20.34 7 20 C7 18.68 7 17.36 7 16 C6.34 16 5.68 16 5 16 C1.66131552 12.66131552 0.75165795 8.52763379 0 4 C0 2.68 0 1.36 0 0 Z " fill="#5423CA" transform="translate(288,299)"/>
<path d="M0 0 C0.66 1.32 1.32 2.64 2 4 C2.99 4 3.98 4 5 4 C7 4 9 4 11 4 C8.15497903 5.89668064 5.42700115 7.23263478 2.3125 8.625 C0.82169922 9.29402344 0.82169922 9.29402344 -0.69921875 9.9765625 C-1.45847656 10.31429688 -2.21773438 10.65203125 -3 11 C-3.33 10.34 -3.66 9.68 -4 9 C-3.22265625 6.8359375 -3.22265625 6.8359375 -2.0625 4.375 C-1.68222656 3.55773437 -1.30195312 2.74046875 -0.91015625 1.8984375 C-0.60980469 1.27195312 -0.30945313 0.64546875 0 0 Z " fill="#5426C2" transform="translate(126,481)"/>
<path d="M0 0 C5.77399819 0.70414612 10.59664743 2.53454112 15.5625 5.5625 C18.28744338 7.16951789 20.97949246 8.0868233 24 9 C24 9.66 24 10.32 24 11 C15.59806226 8.49415892 7.88058561 4.78974143 0 1 C0 0.67 0 0.34 0 0 Z " fill="#5526C2" transform="translate(280,447)"/>
<path d="M0 0 C0.33 0 0.66 0 1 0 C0.95875 0.763125 0.9175 1.52625 0.875 2.3125 C0.77919176 5.22718416 0.77919176 5.22718416 3 8 C1.68 8 0.36 8 -1 8 C-1.33 9.32 -1.66 10.64 -2 12 C-2.66 12 -3.32 12 -4 12 C-4.20496094 12.62648438 -4.40992187 13.25296875 -4.62109375 13.8984375 C-4.89050781 14.71570313 -5.15992187 15.53296875 -5.4375 16.375 C-5.70433594 17.18710937 -5.97117187 17.99921875 -6.24609375 18.8359375 C-7 21 -7 21 -8 23 C-8.66 23 -9.32 23 -10 23 C-8.41980408 17.7936703 -6.22115005 13.01626689 -3.875 8.125 C-3.50246094 7.34125 -3.12992187 6.5575 -2.74609375 5.75 C-1.83381003 3.83186501 -0.91733016 1.91572671 0 0 Z " fill="#5726C6" transform="translate(123,279)"/>
<path d="M0 0 C-1.66086912 5.56664924 -4.11071736 10.65786353 -6.625 15.875 C-7.04523438 16.75414062 -7.46546875 17.63328125 -7.8984375 18.5390625 C-8.9291692 20.69422878 -9.96309426 22.84779922 -11 25 C-11.5859375 23.15234375 -11.5859375 23.15234375 -12 21 C-11.04504326 19.30712215 -10.0409066 17.64142963 -9 16 C-8.29329272 13.30745009 -8.29329272 13.30745009 -8 11 C-7.34 11 -6.68 11 -6 11 C-5.896875 9.741875 -5.79375 8.48375 -5.6875 7.1875 C-5.35342189 4.49101243 -5.17022107 3.23682932 -3.5625 1 C-2 0 -2 0 0 0 Z " fill="#5224C0" transform="translate(239,201)"/>
<path d="M0 0 C3.2531655 3.74114033 5.44374911 8.31315138 7 13 C6.67 13.66 6.34 14.32 6 15 C5.34 14.01 4.68 13.02 4 12 C1.44816596 10.79549696 1.44816596 10.79549696 -1 10 C-0.34 9.67 0.32 9.34 1 9 C1 8.01 1 7.02 1 6 C0.34 6 -0.32 6 -1 6 C-1.33 5.01 -1.66 4.02 -2 3 C-1.34 2.01 -0.68 1.02 0 0 Z " fill="#5720D1" transform="translate(340,411)"/>
<path d="M0 0 C0.33 0 0.66 0 1 0 C1.39839753 4.51517196 0.06079662 7.03692957 -2 11 C-2.33 12.258125 -2.66 13.51625 -3 14.8125 C-3.33 15.864375 -3.66 16.91625 -4 18 C-4.99 18.33 -5.98 18.66 -7 19 C-7.33 19.99 -7.66 20.98 -8 22 C-8.33 21.34 -8.66 20.68 -9 20 C-8.28735352 17.93701172 -8.28735352 17.93701172 -7.12890625 15.4296875 C-6.51499023 14.08583984 -6.51499023 14.08583984 -5.88867188 12.71484375 C-5.45103516 11.77769531 -5.01339844 10.84054687 -4.5625 9.875 C-3.9118457 8.45767578 -3.9118457 8.45767578 -3.24804688 7.01171875 C-2.1723338 4.67115623 -1.08940487 2.33421339 0 0 Z " fill="#5423C8" transform="translate(208,305)"/>
<path d="M0 0 C0.80256019 2.31055545 1.17740468 3.53345509 0.29296875 5.859375 C-0.07183594 6.48328125 -0.43664062 7.1071875 -0.8125 7.75 C-2.9989537 11.77489054 -4.04199577 15.52931359 -5 20 C-6.32 20.33 -7.64 20.66 -9 21 C-7.50640515 16.15713185 -5.54966433 11.68649104 -3.375 7.125 C-2.88773438 6.09246094 -2.88773438 6.09246094 -2.390625 5.0390625 C-1.59676528 3.35794781 -0.79880442 1.67877079 0 0 Z " fill="#5622CC" transform="translate(233,43)"/>
<path d="M0 0 C1.65 0 3.3 0 5 0 C0.99992713 3.373369 -3.2070453 6.08171757 -7.6875 8.75 C-8.70166992 9.36681641 -8.70166992 9.36681641 -9.73632812 9.99609375 C-14.751155 13 -14.751155 13 -17 13 C-17 12.01 -17 11.02 -17 10 C-15.68 10 -14.36 10 -13 10 C-13 9.34 -13 8.68 -13 8 C-11.906875 7.566875 -10.81375 7.13375 -9.6875 6.6875 C-6.84239149 5.48534148 -5.13551531 4.24229108 -3 2 C-2.01 2 -1.02 2 0 2 C0 1.34 0 0.68 0 0 Z " fill="#5122C3" transform="translate(102,423)"/>
<path d="M0 0 C2.55993768 2.55993768 3.61847135 5.21038188 5.125 8.5 C5.93324219 10.24796875 5.93324219 10.24796875 6.7578125 12.03125 C8 15 8 15 8 17 C7.34 17 6.68 17 6 17 C6 16.34 6 15.68 6 15 C5.01 14.67 4.02 14.34 3 14 C2.6278958 12.67696283 2.29369827 11.34262065 2 10 C1.34 9.67 0.68 9.34 0 9 C0 6.03 0 3.06 0 0 Z " fill="#5522CD" transform="translate(339,199)"/>
<path d="M0 0 C0.33 0 0.66 0 1 0 C0.5547115 5.27315333 -0.08373163 10.01770224 -2 15 C-2.99 15 -3.98 15 -5 15 C-5 15.66 -5 16.32 -5 17 C-5.66 17 -6.32 17 -7 17 C-5.24009216 11.08030998 -2.60305395 5.58365008 0 0 Z " fill="#5723CF" transform="translate(218,75)"/>
<path d="M0 0 C1.96426666 2.94639999 3.5345824 5.90087274 5.125 9.0625 C5.66382813 10.12597656 6.20265625 11.18945312 6.7578125 12.28515625 C8 15 8 15 8 17 C7.34 17 6.68 17 6 17 C4.98648336 15.34151823 3.98879205 13.67334039 3 12 C2.2575 11.401875 1.515 10.80375 0.75 10.1875 C-1 8 -1 8 -1.03125 5.97265625 C-0.77762263 3.96829551 -0.396222 1.98111002 0 0 Z " fill="#5723CD" transform="translate(435,405)"/>
<path d="M0 0 C0.33 0 0.66 0 1 0 C0.67 3.3 0.34 6.6 0 10 C-0.99 10 -1.98 10 -3 10 C-3.20496094 10.62648438 -3.40992188 11.25296875 -3.62109375 11.8984375 C-3.89050781 12.71570313 -4.15992188 13.53296875 -4.4375 14.375 C-4.70433594 15.18710937 -4.97117188 15.99921875 -5.24609375 16.8359375 C-6 19 -6 19 -7 21 C-7.66 21 -8.32 21 -9 21 C-7.50640515 16.15713185 -5.54966433 11.68649104 -3.375 7.125 C-2.88773438 6.09246094 -2.88773438 6.09246094 -2.390625 5.0390625 C-1.59676528 3.35794781 -0.79880442 1.67877079 0 0 Z " fill="#5524CA" transform="translate(218,284)"/>
<path d="M0 0 C2.44814179 3.0296652 4.09452853 6.07549599 5.6875 9.625 C6.12449219 10.58664062 6.56148438 11.54828125 7.01171875 12.5390625 C8 15 8 15 8 17 C7.34 17 6.68 17 6 17 C5.5875 16.0925 5.175 15.185 4.75 14.25 C3.23156047 10.9657107 3.23156047 10.9657107 0.75 9.0625 C-1 7 -1 7 -0.75 3.25 C-0.5025 2.1775 -0.255 1.105 0 0 Z " fill="#5425C3" transform="translate(347,426)"/>
<path d="M0 0 C2.96430761 3.55716913 4.7721925 7.45050932 6.6875 11.625 C7.00783203 12.305625 7.32816406 12.98625 7.65820312 13.6875 C10 18.74058835 10 18.74058835 10 21 C9.34 21 8.68 21 8 21 C7.566875 20.030625 7.13375 19.06125 6.6875 18.0625 C5.2985139 14.72268235 5.2985139 14.72268235 2 14 C2.66 13.67 3.32 13.34 4 13 C3.505 11.8553125 3.505 11.8553125 3 10.6875 C2 8 2 8 2 5 C1.34 5 0.68 5 0 5 C0 3.35 0 1.7 0 0 Z " fill="#5424C7" transform="translate(425,384)"/>
<path d="M0 0 C1.53271273 4.58798777 0.02911182 6.77944742 -2 11 C-2.66 11 -3.32 11 -4 11 C-3.34 13.31 -2.68 15.62 -2 18 C-5 18 -5 18 -7 17 C-5.1668733 11.00067626 -2.92678249 5.55079437 0 0 Z " fill="#5722CB" transform="translate(159,202)"/>
<path d="M0 0 C2.70329311 3.29590691 4.41900085 6.75613519 6.1875 10.625 C6.71730469 11.77226563 7.24710937 12.91953125 7.79296875 14.1015625 C9 17 9 17 9 19 C7.68 18.67 6.36 18.34 5 18 C5 17.01 5 16.02 5 15 C4.525625 14.566875 4.05125 14.13375 3.5625 13.6875 C1.34509933 11.29270727 1.37686137 9.20332167 1 6 C0.814375 4.88625 0.62875 3.7725 0.4375 2.625 C0.293125 1.75875 0.14875 0.8925 0 0 Z " fill="#5525C8" transform="translate(296,107)"/>
<path d="M0 0 C0.66 0.99 1.32 1.98 2 3 C1.34 3 0.68 3 0 3 C-0.66 6.3 -1.32 9.6 -2 13 C-2.66 13 -3.32 13 -4 13 C-4.33 14.65 -4.66 16.3 -5 18 C-5.99 18.33 -6.98 18.66 -8 19 C-6.60121198 14.53202662 -4.86369228 10.36177921 -2.875 6.125 C-2.33617187 4.97257812 -1.79734375 3.82015625 -1.2421875 2.6328125 C-0.62730469 1.32957031 -0.62730469 1.32957031 0 0 Z " fill="#5524C8" transform="translate(157,415)"/>
<path d="M0 0 C3.30616284 3.80208727 7 9.83581485 7 15 C4.625 14.5625 4.625 14.5625 2 13 C0.33973476 8.73670584 0 4.54514642 0 0 Z " fill="#5621D1" transform="translate(403,337)"/>
<path d="M0 0 C0.33 0 0.66 0 1 0 C0.54836023 5.32934924 -0.03040829 8.49061999 -3 13 C-4.40001816 15.97126157 -5.70462161 18.9818341 -7 22 C-7.66 22 -8.32 22 -9 22 C-6.66062389 14.33204498 -3.45231194 7.22862726 0 0 Z " fill="#5526C3" transform="translate(196,122)"/>
<path d="M0 0 C3.30616284 3.80208727 7 9.83581485 7 15 C6.34 15 5.68 15 5 15 C0.97279835 10.24057987 0.27293101 6.1409478 0 0 Z M0 9 C0.66 10.32 1.32 11.64 2 13 C1.34 13 0.68 13 0 13 C0 11.68 0 10.36 0 9 Z " fill="#5620CF" transform="translate(410,352)"/>
<path d="M0 0 C0.99 0.33 1.98 0.66 3 1 C3 2.32 3 3.64 3 5 C3.66 5 4.32 5 5 5 C5.66 7.97 6.32 10.94 7 14 C7.66 14 8.32 14 9 14 C9 15.65 9 17.3 9 19 C6.46446243 15.84009582 4.62801666 12.55508505 2.8125 8.9375 C2.28269531 7.89464844 1.75289063 6.85179687 1.20703125 5.77734375 C0 3 0 3 0 0 Z " fill="#5524C3" transform="translate(350,386)"/>
<path d="M0 0 C1.875 0.5 1.875 0.5 4 2 C4.50007809 3.86695819 4.98499463 5.74055148 5.359375 7.63671875 C6.3564906 11.31510252 8.22659925 14.48547527 10.07421875 17.80078125 C11 20 11 20 10 23 C8.32705993 19.54466686 6.66272237 16.08526007 5 12.625 C4.52304687 11.64015625 4.04609375 10.6553125 3.5546875 9.640625 C2.87792969 8.22910156 2.87792969 8.22910156 2.1875 6.7890625 C1.76855469 5.91975098 1.34960938 5.05043945 0.91796875 4.15478516 C0 2 0 2 0 0 Z " fill="#5427BF" transform="translate(313,308)"/>
<path d="M0 0 C1 3 1 3 0.28735352 4.99291992 C-0.09493408 5.73131104 -0.47722168 6.46970215 -0.87109375 7.23046875 C-1.28037109 8.03291016 -1.68964844 8.83535156 -2.11132812 9.66210938 C-2.54896484 10.49548828 -2.98660156 11.32886719 -3.4375 12.1875 C-4.0881543 13.4549707 -4.0881543 13.4549707 -4.75195312 14.74804688 C-5.82582553 16.83678771 -6.90873822 18.92030626 -8 21 C-9.13583456 17.28272326 -8.66670026 15.52948291 -7 12 C-6.34 12 -5.68 12 -5 12 C-4.80664062 11.38511719 -4.61328125 10.77023438 -4.4140625 10.13671875 C-4.15367187 9.32847656 -3.89328125 8.52023438 -3.625 7.6875 C-3.36976563 6.88699219 -3.11453125 6.08648437 -2.8515625 5.26171875 C-2 3 -2 3 0 0 Z " fill="#5228B7" transform="translate(219,240)"/>
<path d="M0 0 C0.58203125 1.85546875 0.58203125 1.85546875 1 4 C0.04060332 5.69036558 -0.96642853 7.35394174 -2 9 C-2.68255989 11.32873375 -3.35050775 13.66182791 -4 16 C-4.66 16.99 -5.32 17.98 -6 19 C-6.66 19 -7.32 19 -8 19 C-6.60121198 14.53202662 -4.86369228 10.36177921 -2.875 6.125 C-2.33617187 4.97257812 -1.79734375 3.82015625 -1.2421875 2.6328125 C-0.62730469 1.32957031 -0.62730469 1.32957031 0 0 Z " fill="#5525C6" transform="translate(56,423)"/>
<path d="M0 0 C0.33 0 0.66 0 1 0 C1 1.65 1 3.3 1 5 C0.34 5 -0.32 5 -1 5 C-1 5.99 -1 6.98 -1 8 C-0.01 8 0.98 8 2 8 C2 8.99 2 9.98 2 11 C0.35 10.67 -1.3 10.34 -3 10 C-3.66 11.65 -4.32 13.3 -5 15 C-5.33 14.34 -5.66 13.68 -6 13 C-5.10333658 10.75689987 -4.10853317 8.55245679 -3.0625 6.375 C-2.49660156 5.18648437 -1.93070313 3.99796875 -1.34765625 2.7734375 C-0.90292969 1.85820312 -0.45820313 0.94296875 0 0 Z " fill="#5823CB" transform="translate(166,187)"/>
<path d="M0 0 C0.33 0.66 0.66 1.32 1 2 C-0.21484375 4.8203125 -0.21484375 4.8203125 -1.9375 8.125 C-2.50339844 9.22070312 -3.06929687 10.31640625 -3.65234375 11.4453125 C-4.09707031 12.28835937 -4.54179687 13.13140625 -5 14 C-5.33 14 -5.66 14 -6 14 C-6 11.36 -6 8.72 -6 6 C-5.34 5.67 -4.68 5.34 -4 5 C-3.67 4.34 -3.34 3.68 -3 3 C-2 1 -2 1 0 0 Z " fill="#5622CA" transform="translate(226,226)"/>
<path d="M0 0 C2.88020456 2.88020456 4.07312294 6.2989031 5.6875 10 C6.18733398 11.10601562 6.18733398 11.10601562 6.69726562 12.234375 C7.52893164 14.12939778 8.27152467 16.06296531 9 18 C8.67 18.66 8.34 19.32 8 20 C6 17 6 17 6 14 C5.34 14 4.68 14 4 14 C3.32471777 12.42032193 2.66010306 10.83608097 2 9.25 C1.62875 8.36828125 1.2575 7.4865625 0.875 6.578125 C0 4 0 4 0 0 Z " fill="#5627C4" transform="translate(305,126)"/>
<path d="M0 0 C3.2531655 3.74114033 5.44374911 8.31315138 7 13 C6.67 13.66 6.34 14.32 6 15 C5.34 14.34 4.68 13.68 4 13 C4 12.01 4 11.02 4 10 C3.01 9.67 2.02 9.34 1 9 C-0.16513114 6.03421164 -0.08762121 3.15436364 0 0 Z " fill="#5722CE" transform="translate(369,264)"/>
<path d="M0 0 C2 1.25 2 1.25 4 3 C4 4.32 4 5.64 4 7 C4.66 7 5.32 7 6 7 C6 8.32 6 9.64 6 11 C6.66 11 7.32 11 8 11 C8.66 12.98 9.32 14.96 10 17 C9.34 17.33 8.68 17.66 8 18 C6.66180502 15.3773768 5.3292849 12.75213401 4 10.125 C3.6184375 9.37863281 3.236875 8.63226563 2.84375 7.86328125 C2.4828125 7.14785156 2.121875 6.43242187 1.75 5.6953125 C1.41484375 5.03547363 1.0796875 4.37563477 0.734375 3.69580078 C0 2 0 2 0 0 Z " fill="#5426C2" transform="translate(273,224)"/>
<path d="M0 0 C2 1.75 2 1.75 4 4 C4 5.32 4 6.64 4 8 C4.99 8.33 5.98 8.66 7 9 C7.33 11.64 7.66 14.28 8 17 C5.72195761 14.12071475 3.95965316 11.2169671 2.3125 7.9375 C1.87550781 7.08027344 1.43851562 6.22304687 0.98828125 5.33984375 C0 3 0 3 0 0 Z " fill="#5525C5" transform="translate(265,206)"/>
<path d="M0 0 C3.30616284 3.80208727 7 9.83581485 7 15 C4 14 4 14 2.9375 12 C2.628125 11.34 2.31875 10.68 2 10 C1.34 9.67 0.68 9.34 0 9 C0 6.03 0 3.06 0 0 Z " fill="#5723CD" transform="translate(289,92)"/>
<path d="M0 0 C2.11386464 2.11386464 2.97008322 3.79267603 4.1875 6.5 C4.55230469 7.2940625 4.91710937 8.088125 5.29296875 8.90625 C5.52628906 9.5971875 5.75960937 10.288125 6 11 C5.67 11.66 5.34 12.32 5 13 C4.13375 11.515 4.13375 11.515 3.25 10 C2.5075 9.01 1.765 8.02 1 7 C-0.32 7 -1.64 7 -3 7 C-1.125 1.125 -1.125 1.125 0 0 Z " fill="#5725C3" transform="translate(250,8)"/>
<path d="M0 0 C0.268125 0.639375 0.53625 1.27875 0.8125 1.9375 C1.88667752 4.33131686 1.88667752 4.33131686 5 5 C5 5.66 5 6.32 5 7 C-4.59453303 4.10933941 -4.59453303 4.10933941 -8 1 C-5.10765685 0.17361624 -3.11257569 0 0 0 Z " fill="#5621D0" transform="translate(332,466)"/>
<path d="M0 0 C0.66 0.99 1.32 1.98 2 3 C1.34 3 0.68 3 0 3 C-0.0825 3.639375 -0.165 4.27875 -0.25 4.9375 C-1.29520372 9.20541517 -3.14091826 13.03107667 -5 17 C-5.66 17 -6.32 17 -7 17 C-5.1668733 11.00067626 -2.92678249 5.55079437 0 0 Z " fill="#5525C7" transform="translate(172,383)"/>
<path d="M0 0 C0.99 0.33 1.98 0.66 3 1 C3.6875 3.0625 3.6875 3.0625 4 5 C3.34 4.67 2.68 4.34 2 4 C1.67 4.99 1.34 5.98 1 7 C0.01 6.67 -0.98 6.34 -2 6 C-2.66 7.32 -3.32 8.64 -4 10 C-4.66 10 -5.32 10 -6 10 C-5.25 7.0625 -5.25 7.0625 -4 4 C-1.875 3.125 -1.875 3.125 0 3 C0 2.01 0 1.02 0 0 Z " fill="#5A1DD9" transform="translate(249,222)"/>
<path d="M0 0 C3.2531655 3.74114033 5.44374911 8.31315138 7 13 C6.67 13.66 6.34 14.32 6 15 C2.12205672 11.7683806 1.04839982 8.89253251 0 4 C0 2.68 0 1.36 0 0 Z " fill="#5623C9" transform="translate(314,146)"/>
<path d="M0 0 C0.99 0.66 1.98 1.32 3 2 C2.67 2.33 2.34 2.66 2 3 C2.66 3.66 3.32 4.32 4 5 C2.73581754 5.69965443 1.46334598 6.38434763 0.1875 7.0625 C-0.52019531 7.44535156 -1.22789062 7.82820313 -1.95703125 8.22265625 C-4 9 -4 9 -7 8 C-5.35 7.01 -3.7 6.02 -2 5 C-2.33 3.68 -2.66 2.36 -3 1 C-2.01 0.67 -1.02 0.34 0 0 Z " fill="#571FD4" transform="translate(167,465)"/>
<path d="M0 0 C1.32 0 2.64 0 4 0 C4 0.66 4 1.32 4 2 C4.78375 2.144375 5.5675 2.28875 6.375 2.4375 C9 3 9 3 11 4 C11 4.66 11 5.32 11 6 C12.32 6 13.64 6 15 6 C15.33 6.99 15.66 7.98 16 9 C10.0942118 7.44584521 5.02261107 4.40465533 0 1 C0 0.67 0 0.34 0 0 Z " fill="#5524C6" transform="translate(428,445)"/>
<path d="M0 0 C0.33 0 0.66 0 1 0 C0.5188509 5.77378925 -1.18467181 9.95859836 -4 15 C-4.66 15 -5.32 15 -6 15 C-4.36041242 9.76727367 -2.61047965 4.84803364 0 0 Z " fill="#5523CC" transform="translate(164,400)"/>
<path d="M0 0 C2.11386464 2.11386464 2.97008322 3.79267603 4.1875 6.5 C4.55230469 7.2940625 4.91710937 8.088125 5.29296875 8.90625 C5.52628906 9.5971875 5.75960938 10.288125 6 11 C5.67 11.66 5.34 12.32 5 13 C4.38125 12.525625 3.7625 12.05125 3.125 11.5625 C1.09294454 9.97582559 1.09294454 9.97582559 -1 9 C-0.835 8.2575 -0.67 7.515 -0.5 6.75 C0.11925696 3.80993422 0.11925696 3.80993422 0 0 Z " fill="#5520D1" transform="translate(298,320)"/>
<path d="M0 0 C1.56073255 2.34109882 2.86373867 4.56333403 4.125 7.0625 C4.47820312 7.75472656 4.83140625 8.44695312 5.1953125 9.16015625 C6 11 6 11 6 13 C4.125 12.875 4.125 12.875 2 12 C0.11301833 7.94298942 -0.21117043 4.43457902 0 0 Z " fill="#5921CF" transform="translate(347,216)"/>
<path d="M0 0 C1.32 0 2.64 0 4 0 C4 0.66 4 1.32 4 2 C5.98 2 7.96 2 10 2 C10.66 3.65 11.32 5.3 12 7 C7.69235185 5.43358249 3.93828536 3.31663844 0 1 C0 0.67 0 0.34 0 0 Z " fill="#5722CE" transform="translate(259,435)"/>
<path d="M0 0 C2.45668485 3.18816967 4.38838956 6.29329598 6 10 C5.67 10.66 5.34 11.32 5 12 C3.046875 11.3203125 3.046875 11.3203125 1 10 C0.390625 7.6171875 0.390625 7.6171875 0.25 4.875 C0.19328125 3.96492188 0.1365625 3.05484375 0.078125 2.1171875 C0.05234375 1.41851562 0.0265625 0.71984375 0 0 Z " fill="#5625C7" transform="translate(417,367)"/>
<path d="M0 0 C3.30616284 3.80208727 7 9.83581485 7 15 C6.34 15 5.68 15 5 15 C2.35018148 12.138196 1.54509797 9.81568579 1 6 C0.814375 4.906875 0.62875 3.81375 0.4375 2.6875 C0.293125 1.800625 0.14875 0.91375 0 0 Z " fill="#5524C2" transform="translate(256,21)"/>
<path d="M0 0 C1.98 0 3.96 0 6 0 C6.66 1.32 7.32 2.64 8 4 C9.32 4 10.64 4 12 4 C12.33 4.99 12.66 5.98 13 7 C8.1725201 5.58707905 4.2837641 3.57025846 0 1 C0 0.67 0 0.34 0 0 Z " fill="#5523C4" transform="translate(392,425)"/>
<path d="M0 0 C3.42931954 3.7559214 4.56429083 8.23466745 6 13 C5.34 12.67 4.68 12.34 4 12 C4 11.34 4 10.68 4 10 C2.68 9.67 1.36 9.34 0 9 C0.66 8.67 1.32 8.34 2 8 C2 7.01 2 6.02 2 5 C1.34 5 0.68 5 0 5 C0 3.35 0 1.7 0 0 Z " fill="#5523C9" transform="translate(281,75)"/>
<path d="M0 0 C2.96052484 3.36423277 3.92289822 6.69159287 5 11 C4.01 11 3.02 11 2 11 C1.87625 9.865625 1.7525 8.73125 1.625 7.5625 C1.41875 6.386875 1.2125 5.21125 1 4 C0.34 3.67 -0.32 3.34 -1 3 C-0.67 2.01 -0.34 1.02 0 0 Z " fill="#5321CC" transform="translate(330,389)"/>
<path d="M0 0 C0.66 0.99 1.32 1.98 2 3 C1.525625 3.7425 1.05125 4.485 0.5625 5.25 C-0.77869327 7.61050015 -1.512312 9.36648477 -2 12 C-2.66 12 -3.32 12 -4 12 C-4 12.99 -4 13.98 -4 15 C-4.66 15 -5.32 15 -6 15 C-4.40109514 9.80355921 -2.25861997 4.93387858 0 0 Z " fill="#5628C7" transform="translate(203,107)"/>
<path d="M0 0 C1.03274898 2.68514734 1.07566569 3.7921588 0.07421875 6.54296875 C-0.38339844 7.41566406 -0.84101563 8.28835937 -1.3125 9.1875 C-1.76238281 10.06792969 -2.21226562 10.94835938 -2.67578125 11.85546875 C-4 14 -4 14 -6 15 C-4.36041242 9.76727367 -2.61047965 4.84803364 0 0 Z " fill="#5525C3" transform="translate(241,26)"/>
<path d="M0 0 C2.64465038 3.1254959 3.84414715 6.08788267 5 10 C2.08482708 8.92598892 0.22189824 8.22189824 -2 6 C-1.01 6 -0.02 6 1 6 C0.67 4.02 0.34 2.04 0 0 Z " fill="#532DB4" transform="translate(458,455)"/>
<path d="M0 0 C0.66 0 1.32 0 2 0 C2 0.66 2 1.32 2 2 C2.99 2 3.98 2 5 2 C5.33 5.3 5.66 8.6 6 12 C0 4 0 4 0 0 Z " fill="#5724C8" transform="translate(307,296)"/>
<path d="M0 0 C0.99 0 1.98 0 3 0 C1.68938409 4.23429756 0.05643741 8.07407404 -2 12 C-2.33 12 -2.66 12 -3 12 C-3 10.35 -3 8.7 -3 7 C-2.34 7 -1.68 7 -1 7 C-0.67 4.69 -0.34 2.38 0 0 Z " fill="#5423C6" transform="translate(202,272)"/>
<path d="M0 0 C0.33 0 0.66 0 1 0 C1.1875 2.8125 1.1875 2.8125 1 6 C-0.4375 7.625 -0.4375 7.625 -2 9 C-2.71447643 11.10332891 -2.71447643 11.10332891 -3 13 C-3.66 13 -4.32 13 -5 13 C-4.54554036 11.58208592 -4.08625056 10.16571954 -3.625 8.75 C-3.24214844 7.56664062 -3.24214844 7.56664062 -2.8515625 6.359375 C-2.04826333 4.13372042 -1.10288338 2.09068328 0 0 Z " fill="#5626C3" transform="translate(138,247)"/>
<path d="M0 0 C0.33 0 0.66 0 1 0 C1.33 2.31 1.66 4.62 2 7 C1.01 7.33 0.02 7.66 -1 8 C-2.66710346 9.49985609 -2.66710346 9.49985609 -4 11 C-3.52269162 9.5410574 -3.04308958 8.08286504 -2.5625 6.625 C-2.29566406 5.81289062 -2.02882812 5.00078125 -1.75390625 4.1640625 C-1 2 -1 2 0 0 Z " fill="#5522CE" transform="translate(171,176)"/>
<path d="M0 0 C1.24451915 3.59527755 0.70603283 6.31293967 0 10 C0 10.99 0 11.98 0 13 C-0.66 13 -1.32 13 -2 13 C-2 12.34 -2 11.68 -2 11 C-2.66 11 -3.32 11 -4 11 C-3.52269162 9.5410574 -3.04308958 8.08286504 -2.5625 6.625 C-2.29566406 5.81289062 -2.02882812 5.00078125 -1.75390625 4.1640625 C-1 2 -1 2 0 0 Z " fill="#5925CD" transform="translate(176,165)"/>
<path d="M0 0 C1.18771723 3.42943519 0.80226223 5.37784675 -0.4375 8.75 C-0.86869141 9.94882812 -0.86869141 9.94882812 -1.30859375 11.171875 C-1.65083984 12.07679688 -1.65083984 12.07679688 -2 13 C-2.33 13 -2.66 13 -3 13 C-2.88490339 11.58249437 -2.75746342 10.16598831 -2.625 8.75 C-2.55539063 7.96109375 -2.48578125 7.1721875 -2.4140625 6.359375 C-1.98492887 3.914123 -1.21399362 2.15163097 0 0 Z " fill="#5721CE" transform="translate(47,442)"/>
<path d="M0 0 C0.93045933 2.55144824 1.08564091 3.74006478 0.22265625 6.359375 C-0.16019531 7.14828125 -0.54304687 7.9371875 -0.9375 8.75 C-1.50791016 9.94882812 -1.50791016 9.94882812 -2.08984375 11.171875 C-2.39019531 11.77515625 -2.69054687 12.3784375 -3 13 C-3.66 13 -4.32 13 -5 13 C-4.54554036 11.58208592 -4.08625056 10.16571954 -3.625 8.75 C-3.24214844 7.56664062 -3.24214844 7.56664062 -2.8515625 6.359375 C-2.04826333 4.13372042 -1.10288338 2.09068328 0 0 Z " fill="#5426C3" transform="translate(198,327)"/>
<path d="M0 0 C1.46726798 3.81489674 0.43336419 6.29011622 -1 10 C-1.66 10 -2.32 10 -3 10 C-3 10.99 -3 11.98 -3 13 C-3.66 13 -4.32 13 -5 13 C-3.58192622 8.52761347 -1.88695626 4.28853694 0 0 Z " fill="#5426C0" transform="translate(132,468)"/>
<path d="M0 0 C1.0169313 2.65498232 1.13022151 3.69155375 0.00390625 6.359375 C-0.47175781 7.14828125 -0.94742188 7.9371875 -1.4375 8.75 C-2.14712891 9.94882812 -2.14712891 9.94882812 -2.87109375 11.171875 C-3.24363281 11.77515625 -3.61617187 12.3784375 -4 13 C-4.33 12.34 -4.66 11.68 -5 11 C-4.00390625 8.3984375 -4.00390625 8.3984375 -2.5625 5.375 C-2.08941406 4.37210938 -1.61632812 3.36921875 -1.12890625 2.3359375 C-0.75636719 1.56507812 -0.38382813 0.79421875 0 0 Z " fill="#5629C2" transform="translate(233,43)"/>
<path d="M0 0 C2 0 2 0 4.625 2.375 C7 5 7 5 7 7 C1.33846154 5.52307692 1.33846154 5.52307692 -0.375 2.875 C-0.58125 2.25625 -0.7875 1.6375 -1 1 C-0.67 0.67 -0.34 0.34 0 0 Z " fill="#5621D3" transform="translate(252,428)"/>
<path d="M0 0 C-0.33 0.99 -0.66 1.98 -1 3 C-0.01 3.33 0.98 3.66 2 4 C2 4.66 2 5.32 2 6 C-1.77545388 4.90931332 -4.47043472 4.0916909 -7 1 C-4.50935112 0.31292445 -2.62113708 0 0 0 Z " fill="#5524CB" transform="translate(378,412)"/>
<path d="M0 0 C0.98120464 3.05263664 0.98120464 4.94736336 0 8 C-0.66 8 -1.32 8 -2 8 C-2.33 9.65 -2.66 11.3 -3 13 C-3.66 13 -4.32 13 -5 13 C-3.58192622 8.52761347 -1.88695626 4.28853694 0 0 Z " fill="#5526C4" transform="translate(180,365)"/>
<path d="M0 0 C0.33 0 0.66 0 1 0 C0.67 3.3 0.34 6.6 0 10 C-0.99 10.33 -1.98 10.66 -3 11 C-2.44894091 7.0507432 -1.61064629 3.65079826 0 0 Z " fill="#5822D2" transform="translate(100,328)"/>
<path d="M0 0 C3.42931954 3.7559214 4.56429083 8.23466745 6 13 C2.98801958 11.49400979 2.42758242 8.97413004 1 6 C0.34 5.01 -0.32 4.02 -1 3 C-0.67 2.01 -0.34 1.02 0 0 Z " fill="#5425C0" transform="translate(363,251)"/>
<path d="M0 0 C-1.28524261 0.86380259 -2.57842419 1.71580369 -3.875 2.5625 C-4.59429687 3.03816406 -5.31359375 3.51382812 -6.0546875 4.00390625 C-6.69664063 4.33261719 -7.33859375 4.66132813 -8 5 C-8.66 4.67 -9.32 4.34 -10 4 C-9.67 3.01 -9.34 2.02 -9 1 C-3.79245283 -1.26415094 -3.79245283 -1.26415094 0 0 Z " fill="#5222C6" transform="translate(117,418)"/>
<path d="M0 0 C2.52394612 3.12488567 4.39701907 6.31314387 6 10 C5.67 10.66 5.34 11.32 5 12 C2.26629955 9.63907689 1.08902355 7.43461272 0 4 C0 2.68 0 1.36 0 0 Z " fill="#5424C4" transform="translate(313,353)"/>
<path d="M0 0 C2.71843438 3.62457917 3.41789544 4.80884715 4 9 C3.01 9.33 2.02 9.66 1 10 C0.67 6.7 0.34 3.4 0 0 Z " fill="#5623C8" transform="translate(357,238)"/>
<path d="M0 0 C2.64 0.33 5.28 0.66 8 1 C8.33 2.32 8.66 3.64 9 5 C5.54074837 3.7508258 2.85306797 2.32472205 0 0 Z " fill="#5423CC" transform="translate(271,442)"/>
<path d="M0 0 C2.15377564 2.62198774 3.40072174 4.64404172 4 8 C3.34 8 2.68 8 2 8 C2 7.34 2 6.68 2 6 C1.01 6 0.02 6 -1 6 C-0.67 4.02 -0.34 2.04 0 0 Z " fill="#5621CA" transform="translate(323,374)"/>
<path d="M0 0 C0.33 0 0.66 0 1 0 C0.67 3.3 0.34 6.6 0 10 C-0.33 9.34 -0.66 8.68 -1 8 C-1.66 8 -2.32 8 -3 8 C-1.125 2.25 -1.125 2.25 0 0 Z " fill="#5422CE" transform="translate(190,344)"/>
<path d="M0 0 C2.15377564 2.62198774 3.40072174 4.64404172 4 8 C2.68 7.67 1.36 7.34 0 7 C0 4.69 0 2.38 0 0 Z " fill="#5622CA" transform="translate(275,271)"/>
<path d="M0 0 C0.95465783 2.16967689 1.14401212 3.56328793 0.3984375 5.82421875 C-0.35870385 7.5684743 -1.17609198 9.28627131 -2 11 C-2.66 10.67 -3.32 10.34 -4 10 C-2.8905928 6.51329166 -1.73662334 3.22515763 0 0 Z " fill="#5625C9" transform="translate(208,97)"/>
<path d="M0 0 C0.95465783 2.16967689 1.14401212 3.56328793 0.3984375 5.82421875 C-0.35870385 7.5684743 -1.17609198 9.28627131 -2 11 C-2.66 11 -3.32 11 -4 11 C-3.52269162 9.5410574 -3.04308958 8.08286504 -2.5625 6.625 C-2.29566406 5.81289062 -2.02882812 5.00078125 -1.75390625 4.1640625 C-1 2 -1 2 0 0 Z " fill="#5626C4" transform="translate(223,64)"/>
<path d="M0 0 C3.00617269 3.00617269 2.59585316 5.82381598 3 10 C1.68 9.34 0.36 8.68 -1 8 C-0.67 5.36 -0.34 2.72 0 0 Z " fill="#571FD6" transform="translate(347,426)"/>
<path d="M0 0 C4.875 4.5 4.875 4.5 6 9 C3.69 7.02 1.38 5.04 -1 3 C-0.67 2.01 -0.34 1.02 0 0 Z " fill="#5520CE" transform="translate(253,227)"/>
<path d="M0 0 C2.50298434 2.93828597 3.46930939 5.17902761 4 9 C3.34 8.67 2.68 8.34 2 8 C2 7.34 2 6.68 2 6 C1.01 5.67 0.02 5.34 -1 5 C-0.67 3.35 -0.34 1.7 0 0 Z " fill="#5724CC" transform="translate(331,182)"/>
<path d="M0 0 C1.32 0.66 2.64 1.32 4 2 C-1.75 6 -1.75 6 -4 6 C-4 4 -4 4 -2 1.875 C-1.34 1.25625 -0.68 0.6375 0 0 Z " fill="#5222C7" transform="translate(121,411)"/>
<path d="M0 0 C0.66 0 1.32 0 2 0 C1.46930939 3.82097239 0.50298434 6.06171403 -2 9 C-1.125 1.125 -1.125 1.125 0 0 Z " fill="#5324C6" transform="translate(212,252)"/>
<path d="M0 0 C0.66 0 1.32 0 2 0 C3.625 2 3.625 2 5 4 C4.67 4.66 4.34 5.32 4 6 C3.34 6 2.68 6 2 6 C2 5.34 2 4.68 2 4 C1.01 4 0.02 4 -1 4 C-0.67 2.68 -0.34 1.36 0 0 Z " fill="#5C1FD9" transform="translate(186,144)"/>
<path d="M0 0 C0.33 0 0.66 0 1 0 C0.125 6.75 0.125 6.75 -1 9 C-1.66 9 -2.32 9 -3 9 C-2.01 6.03 -1.02 3.06 0 0 Z " fill="#5223C5" transform="translate(148,434)"/>
<path d="M0 0 C0 0.99 0 1.98 0 3 C0.66 3 1.32 3 2 3 C2 3.66 2 4.32 2 5 C-0.02045442 4.39816251 -2.02111039 3.72693904 -4 3 C-4.33 2.34 -4.66 1.68 -5 1 C-2 0 -2 0 0 0 Z " fill="#5223CF" transform="translate(410,431)"/>
<path d="M0 0 C0.33 0 0.66 0 1 0 C1.25 2.8125 1.25 2.8125 1 6 C-1 7.875 -1 7.875 -3 9 C-2.01 6.03 -1.02 3.06 0 0 Z " fill="#5524C2" transform="translate(88,354)"/>
</svg>
